<svg width="360" height="800" viewBox="0 0 360 800" fill="none" xmlns="http://www.w3.org/2000/svg">
<g clip-path="url(#clip0_2466_17650)">
<path d="M75 781.557C73.453 782.45 71.547 782.45 70 781.557L39.926 764.193C38.3789 763.3 37.426 761.65 37.426 759.863L37.426 725.137C37.426 723.35 38.3789 721.7 39.926 720.807L70 703.443C71.547 702.55 73.453 702.55 75 703.443L105.074 720.807C106.621 721.7 107.574 723.35 107.574 725.137L107.574 759.863C107.574 761.65 106.621 763.3 105.074 764.193L75 781.557Z" fill="#733CAE"/>
<path d="M82.75 793.124C81.3577 793.927 79.6423 793.927 78.25 793.124L51.6401 777.76C50.2478 776.957 49.3901 775.471 49.3901 773.863L49.3901 743.137C49.3901 741.529 50.2478 740.043 51.6401 739.24L78.25 723.876C79.6423 723.073 81.3577 723.073 82.75 723.876L109.36 739.24C110.752 740.043 111.61 741.529 111.61 743.137L111.61 773.863C111.61 775.471 110.752 776.957 109.36 777.76L82.75 793.124Z" stroke="#321A4C"/>
<path d="M10.4714 824.595C8.939 825.466 7.06098 825.466 5.52856 824.595L-18.0503 811.188C-19.6134 810.299 -20.5788 808.639 -20.5788 806.841L-20.5788 780.159C-20.5788 778.361 -19.6134 776.701 -18.0503 775.812L5.52857 762.405C7.06099 761.534 8.93901 761.534 10.4714 762.405L34.0503 775.812C35.6134 776.701 36.5788 778.361 36.5788 780.159L36.5788 806.841C36.5788 808.639 35.6134 810.299 34.0503 811.188L10.4714 824.595Z" fill="#3B4EAD"/>
<path d="M19.75 809.124C18.3577 809.927 16.6423 809.927 15.25 809.124L-2.69969 798.76C-4.09199 797.957 -4.94969 796.471 -4.94969 794.863L-4.94968 774.137C-4.94968 772.529 -4.09199 771.044 -2.69968 770.24L15.25 759.876C16.6423 759.073 18.3577 759.073 19.75 759.876L37.6997 770.24C39.092 771.044 39.9497 772.529 39.9497 774.137L39.9497 794.863C39.9497 796.471 39.092 797.957 37.6997 798.76L19.75 809.124Z" stroke="#321A4C"/>
<path d="M12.0365 729.507C10.471 730.428 8.52894 730.428 6.9635 729.507L-10.1202 719.45C-11.6466 718.552 -12.5837 716.913 -12.5837 715.141L-12.5837 694.859C-12.5837 693.087 -11.6466 691.448 -10.1202 690.55L6.9635 680.493C8.52895 679.572 10.471 679.572 12.0365 680.493L29.1201 690.55C30.6465 691.448 31.5837 693.087 31.5836 694.859L31.5836 715.141C31.5836 716.913 30.6465 718.552 29.1201 719.45L12.0365 729.507Z" fill="#AD3B90"/>
<path d="M21.7872 719.07C20.3761 719.902 18.6239 719.902 17.2128 719.07L2.72723 710.52C1.35592 709.711 0.514421 708.237 0.514421 706.645L0.514422 689.355C0.514422 687.763 1.35593 686.289 2.72723 685.48L17.2128 676.93C18.6239 676.098 20.3761 676.098 21.7872 676.93L36.2728 685.48C37.6441 686.289 38.4856 687.763 38.4856 689.355L38.4856 706.645C38.4856 708.237 37.6441 709.711 36.2728 710.52L21.7872 719.07Z" stroke="#321A4C"/>
</g>
<g clip-path="url(#clip1_2466_17650)">
<path d="M282 91.5566C283.547 92.4498 285.453 92.4498 287 91.5566L317.074 74.1934C318.621 73.3002 319.574 71.6496 319.574 69.8632L319.574 35.1367C319.574 33.3504 318.621 31.6998 317.074 30.8066L287 13.4434C285.453 12.5502 283.547 12.5502 282 13.4434L251.926 30.8066C250.379 31.6998 249.426 33.3504 249.426 35.1368L249.426 69.8633C249.426 71.6496 250.379 73.3002 251.926 74.1934L282 91.5566Z" fill="#733CAE"/>
<path d="M274.25 103.124C275.642 103.927 277.358 103.927 278.75 103.124L305.36 87.7604C306.752 86.9565 307.61 85.4709 307.61 83.8632L307.61 53.1368C307.61 51.5291 306.752 50.0435 305.36 49.2396L278.75 33.8764C277.358 33.0726 275.642 33.0726 274.25 33.8764L247.64 49.2397C246.248 50.0435 245.39 51.5291 245.39 53.1368L245.39 83.8633C245.39 85.4709 246.248 86.9565 247.64 87.7604L274.25 103.124Z" stroke="#321A4C"/>
<path d="M346.529 134.595C348.061 135.466 349.939 135.466 351.471 134.595L375.05 121.188C376.613 120.299 377.579 118.639 377.579 116.841L377.579 90.1587C377.579 88.3606 376.613 86.701 375.05 85.8122L351.471 72.4053C349.939 71.5339 348.061 71.5339 346.529 72.4053L322.95 85.8123C321.387 86.701 320.421 88.3607 320.421 90.1588L320.421 116.841C320.421 118.639 321.387 120.299 322.95 121.188L346.529 134.595Z" fill="#3B4EAD"/>
<path d="M337.25 119.124C338.642 119.927 340.358 119.927 341.75 119.124L359.7 108.76C361.092 107.957 361.95 106.471 361.95 104.863L361.95 84.1367C361.95 82.5291 361.092 81.0435 359.7 80.2396L341.75 69.8764C340.358 69.0725 338.642 69.0725 337.25 69.8764L319.3 80.2396C317.908 81.0435 317.05 82.5291 317.05 84.1368L317.05 104.863C317.05 106.471 317.908 107.957 319.3 108.76L337.25 119.124Z" stroke="#321A4C"/>
<path d="M344.964 39.5068C346.529 40.4284 348.471 40.4284 350.037 39.5068L367.12 29.4502C368.647 28.5516 369.584 26.9126 369.584 25.1413L369.584 4.85866C369.584 3.08741 368.647 1.44836 367.12 0.549808L350.036 -9.50683C348.471 -10.4284 346.529 -10.4284 344.964 -9.50683L327.88 0.549818C326.353 1.44837 325.416 3.08742 325.416 4.85867L325.416 25.1413C325.416 26.9126 326.353 28.5516 327.88 29.4502L344.964 39.5068Z" fill="#AD3B90"/>
<path d="M335.213 29.0696C336.624 29.9023 338.376 29.9023 339.787 29.0696L354.273 20.5205C355.644 19.7111 356.486 18.2374 356.486 16.645L356.486 -0.645061C356.486 -2.23738 355.644 -3.71115 354.273 -4.52047L339.787 -13.0696C338.376 -13.9023 336.624 -13.9023 335.213 -13.0696L320.727 -4.52046C319.356 -3.71114 318.514 -2.23737 318.514 -0.645051L318.514 16.6451C318.514 18.2374 319.356 19.7111 320.727 20.5205L335.213 29.0696Z" stroke="#321A4C"/>
</g>
<defs>
<clipPath id="clip0_2466_17650">
<rect width="360" height="800" fill="white" transform="matrix(-1 0 0 -1 360 800)"/>
</clipPath>
<clipPath id="clip1_2466_17650">
<rect width="360" height="800" fill="white"/>
</clipPath>
</defs>
</svg>
