<svg width="142" height="151" viewBox="0 0 142 151" fill="none" xmlns="http://www.w3.org/2000/svg">
<path d="M42 106.557C43.547 107.45 45.453 107.45 47 106.557L77.074 89.1934C78.6211 88.3002 79.574 86.6496 79.574 84.8632L79.574 50.1367C79.574 48.3504 78.621 46.6998 77.074 45.8066L47 28.4434C45.453 27.5502 43.547 27.5502 42 28.4434L11.926 45.8066C10.379 46.6998 9.42596 48.3504 9.42596 50.1368L9.42597 84.8633C9.42597 86.6496 10.379 88.3002 11.926 89.1934L42 106.557Z" fill="#733CAE"/>
<path d="M34.25 118.124C35.6423 118.927 37.3577 118.927 38.75 118.124L65.3599 102.76C66.7522 101.957 67.6099 100.471 67.6099 98.8632L67.6099 68.1368C67.6099 66.5291 66.7522 65.0435 65.3599 64.2396L38.75 48.8764C37.3577 48.0726 35.6423 48.0726 34.25 48.8764L7.64006 64.2397C6.24776 65.0435 5.39006 66.5291 5.39006 68.1368L5.39007 98.8633C5.39007 100.471 6.24776 101.957 7.64007 102.76L34.25 118.124Z" stroke="#321A4C"/>
<path d="M106.529 149.595C108.061 150.466 109.939 150.466 111.471 149.595L135.05 136.188C136.613 135.299 137.579 133.639 137.579 131.841L137.579 105.159C137.579 103.361 136.613 101.701 135.05 100.812L111.471 87.4053C109.939 86.5339 108.061 86.5339 106.529 87.4053L82.9497 100.812C81.3866 101.701 80.4212 103.361 80.4212 105.159L80.4212 131.841C80.4212 133.639 81.3866 135.299 82.9497 136.188L106.529 149.595Z" fill="#3B4EAD"/>
<path d="M97.25 134.124C98.6423 134.927 100.358 134.927 101.75 134.124L119.7 123.76C121.092 122.957 121.95 121.471 121.95 119.863L121.95 99.1367C121.95 97.5291 121.092 96.0435 119.7 95.2396L101.75 84.8764C100.358 84.0725 98.6423 84.0725 97.25 84.8764L79.3003 95.2396C77.908 96.0435 77.0503 97.5291 77.0503 99.1368L77.0503 119.863C77.0503 121.471 77.908 122.957 79.3003 123.76L97.25 134.124Z" stroke="#321A4C"/>
<path d="M104.964 54.5068C106.529 55.4284 108.471 55.4284 110.037 54.5068L127.12 44.4502C128.647 43.5516 129.584 41.9126 129.584 40.1413L129.584 19.8587C129.584 18.0874 128.647 16.4484 127.12 15.5498L110.036 5.49317C108.471 4.57164 106.529 4.57164 104.964 5.49317L87.8798 15.5498C86.3534 16.4484 85.4163 18.0874 85.4163 19.8587L85.4163 40.1413C85.4163 41.9126 86.3535 43.5516 87.8799 44.4502L104.964 54.5068Z" fill="#AD3B90"/>
<path d="M95.2128 44.0696C96.6239 44.9023 98.3761 44.9023 99.7872 44.0696L114.273 35.5205C115.644 34.7111 116.486 33.2374 116.486 31.645L116.486 14.3549C116.486 12.7626 115.644 11.2889 114.273 10.4795L99.7872 1.93044C98.3761 1.09765 96.6239 1.09765 95.2128 1.93044L80.7272 10.4795C79.3559 11.2889 78.5144 12.7626 78.5144 14.3549L78.5144 31.6451C78.5144 33.2374 79.3559 34.7111 80.7272 35.5205L95.2128 44.0696Z" stroke="#321A4C"/>
</svg>
