<svg width="704" height="1026" viewBox="0 0 704 1026" fill="none" xmlns="http://www.w3.org/2000/svg">
<rect width="704" height="1026" fill="#FAF3EA"/>
<mask id="mask0_2113_938" style="mask-type:alpha" maskUnits="userSpaceOnUse" x="0" y="2" width="704" height="1024">
<rect y="2" width="704" height="1024" fill="#FAF3EA"/>
</mask>
<g mask="url(#mask0_2113_938)">
<path d="M192.562 819.329C195.339 820.932 198.759 820.932 201.536 819.329L448.396 676.804C451.172 675.201 452.883 672.239 452.883 669.033L452.883 383.983C452.883 380.778 451.172 377.815 448.396 376.212L201.536 233.687C198.759 232.085 195.339 232.085 192.562 233.687L-54.2981 376.212C-57.0745 377.815 -58.7848 380.778 -58.7848 383.984L-58.7847 669.033C-58.7847 672.239 -57.0744 675.202 -54.2981 676.805L192.562 819.329Z" fill="#733CAE"/>
<path d="M158.808 907.814C161.306 909.256 164.385 909.256 166.884 907.814L390.737 778.572C393.236 777.129 394.775 774.463 394.775 771.578L394.775 513.094C394.775 510.208 393.236 507.542 390.737 506.1L166.884 376.858C164.385 375.415 161.306 375.415 158.808 376.858L-65.0463 506.1C-67.545 507.542 -69.0843 510.208 -69.0843 513.094L-69.0842 771.578C-69.0842 774.463 -67.5449 777.129 -65.0462 778.572L158.808 907.814Z" stroke="#321A4C" stroke-width="1.79467"/>
<path d="M568.142 1052.18C570.919 1053.79 574.339 1053.79 577.116 1052.18L775.202 937.818C777.978 936.215 779.689 933.253 779.689 930.047L779.689 701.316C779.689 698.111 777.978 695.148 775.202 693.545L577.116 579.18C574.339 577.577 570.919 577.577 568.142 579.18L370.056 693.545C367.28 695.148 365.569 698.111 365.569 701.317L365.569 930.047C365.569 933.253 367.28 936.215 370.056 937.818L568.142 1052.18Z" fill="#3B4EAD"/>
<path d="M499.32 944.202C501.819 945.644 504.898 945.644 507.396 944.202L668.672 851.089C671.171 849.646 672.71 846.98 672.71 844.095L672.71 657.87C672.71 654.985 671.171 652.319 668.672 650.876L507.396 557.763C504.897 556.321 501.819 556.321 499.32 557.763L338.044 650.876L337.596 650.099L338.044 650.876C335.546 652.319 334.006 654.985 334.006 657.87L334.006 844.095C334.006 846.98 335.546 849.647 338.044 851.089L499.32 944.202Z" stroke="#321A4C" stroke-width="1.79467"/>
<path d="M551.503 351.398C554.284 353.007 557.714 353.007 560.495 351.398L714.334 262.342C717.105 260.738 718.812 257.778 718.812 254.576L718.812 76.4239C718.812 73.2218 717.105 70.2623 714.334 68.658L560.495 -20.3974C557.714 -22.0072 554.284 -22.0072 551.503 -20.3974L397.664 68.6581C394.893 70.2624 393.186 73.2219 393.186 76.424L393.186 254.576C393.186 257.778 394.893 260.738 397.664 262.342L551.503 351.398Z" fill="#AD3B90"/>
<path d="M482.461 276.633C484.96 278.075 488.038 278.075 490.537 276.633L625.757 198.563C628.256 197.121 629.795 194.455 629.795 191.569L629.795 35.4309C629.795 32.5456 628.256 29.8795 625.757 28.4368L490.537 -49.6324C488.038 -51.075 484.96 -51.075 482.461 -49.6323L347.241 28.4369C344.742 29.8796 343.203 32.5457 343.203 35.4309L343.203 191.569C343.203 194.455 344.742 197.121 347.241 198.563L482.461 276.633Z" stroke="#321A4C" stroke-width="1.79467"/>
<ellipse cx="352" cy="848.348" rx="175" ry="36.5869" fill="#FFE9CC"/>
</g>
<g clip-path="url(#clip0_2113_938)">
<path d="M247.261 293.704C247.688 293.876 248.172 294.268 248.532 294.172C249.518 293.913 250.449 293.453 251.472 293.045C251.188 292.945 250.897 292.846 250.609 292.742C250.625 292.638 250.637 292.534 250.653 292.43C254.617 292.806 258.58 293.181 262.024 293.505C263.123 293.065 263.802 292.738 264.513 292.518C266.223 291.994 267.953 291.543 269.663 291.019C270.511 290.76 271.454 289.981 272.145 290.177C275.15 291.015 277.299 288.79 279.904 288.278C280.384 288.183 280.867 287.659 281.278 287.731C284.882 288.355 287.108 285.953 289.717 284.071C289.229 283.72 288.838 283.436 288.346 283.08C291.854 277.87 292.21 271.821 292.861 265.724C291.123 268.093 289.321 270.419 287.695 272.864C287.239 273.551 287.132 274.59 287.168 275.457C287.228 276.879 285.929 278.522 284.475 278.778C283.876 278.881 283.34 279.361 282.812 279.648C282.541 278.342 282.265 277.011 281.99 275.685C281.818 275.669 281.646 275.653 281.474 275.637C281.195 276.552 280.915 277.467 280.603 278.494C279.377 278.078 278.837 277.227 279.656 276.129C280.903 274.459 280.899 272.604 280.883 270.702C280.883 270.503 280.839 270.303 280.843 270.107C280.863 267.242 280.435 266.779 277.483 267.37C274.119 268.042 270.834 267.934 268.001 266.016C261.737 261.773 254.329 261.054 247.393 258.852C242.886 257.422 238.499 255.46 234.295 253.278C229.31 250.689 226.968 245.794 226.28 240.629C225.27 233.029 225.905 225.474 229.909 218.534C233.4 212.476 237.548 206.963 243.014 202.592C250.913 196.275 258.856 190.006 266.97 183.977C272.349 179.981 278.174 176.589 283.588 172.637C286.76 170.32 290.276 168.978 293.88 167.699C294.419 167.507 295.258 167.244 295.57 167.495C297.228 168.834 298.99 168.838 300.888 168.274C301.192 168.183 301.532 168.211 301.855 168.183C301.755 167.851 301.739 167.443 301.539 167.196C300.704 166.165 301.112 165.857 302.226 165.857C308.815 165.869 315.34 165.937 321.66 168.434C328.189 171.011 334.961 172.973 341.51 175.514C346.616 177.492 350.432 181.052 351.755 186.582C352.725 190.649 352.681 194.8 351.611 198.896C351.048 201.049 350.38 203.191 350.056 205.38C349.86 206.707 350.188 208.125 350.364 209.492C350.728 212.277 353.94 213.459 354.356 216.236C354.4 216.536 354.532 218.45 354.703 218.701C355.674 220.116 353.876 221.514 354.728 222.725C357.352 222.433 360.297 222.109 363.242 221.778C366.786 221.378 369.642 226.197 368.268 229.006C366.993 231.611 365.83 234.448 363.885 236.477C362.551 237.872 359.961 238.064 357.408 238.982C357.145 240.448 355.942 242.842 355.063 244.856C353.365 248.74 354.847 252.931 353.824 256.882C352.886 260.51 350.281 263.147 348.055 266C347.619 266.559 347.168 267.107 346.772 267.69C345.757 269.184 344.646 270.311 342.633 270.611C341.255 270.814 340 271.869 338.753 271.981C338.182 271.857 337.603 271.594 337.039 271.634C335.889 271.709 334.738 272.137 333.603 272.085C329.78 271.913 325.968 271.462 322.148 271.414C321.021 271.398 319.579 271.453 319.463 273.755C319.236 278.23 318.245 282.661 317.657 287.12C317.593 287.603 317.949 288.351 318.348 288.65C321.309 290.88 324.318 293.041 327.334 295.195C329.436 296.697 331.893 297.037 334.302 296.605C337.978 295.946 340.431 297.963 342.493 300.289C346.205 304.472 351.087 306.594 355.93 308.919C357.408 309.627 359.162 310.389 358.71 312.783C362.282 313.51 361.531 316.667 361.863 318.952C362.874 325.968 363.313 333.072 364.436 340.068C364.948 343.241 366.634 346.213 367.637 349.321C368.759 352.801 369.658 356.35 370.773 359.834C370.993 360.517 371.74 361.032 372.243 361.624C372.559 361.995 373.014 362.311 373.174 362.739C373.622 363.929 374.034 365.148 374.277 366.394C374.369 366.862 374.001 367.856 373.758 367.889C370.645 368.264 369.111 370.965 366.885 372.579C364.488 374.321 362.487 376.602 360.297 378.632C359.586 379.292 359.178 379.843 360.049 380.766C360.948 381.717 360.664 382.843 359.73 383.579C356.529 386.096 356.621 390.355 354.444 393.412C354.272 393.656 354.488 394.302 354.695 394.666C357.444 399.533 359.997 404.531 363.074 409.178C365.16 412.33 365.287 414.368 362.427 416.594C364.364 421.368 366.446 426.054 368.144 430.873C369.075 433.514 369.55 436.359 369.866 439.152C370.186 441.961 369.978 442.061 372.671 442.3C374.409 442.456 375.6 443.192 377.09 444.198C380.302 446.364 380.131 449.384 380.235 452.273C380.41 457.143 381.96 461.594 383.651 466.021C385.604 471.14 384.889 476.086 383.103 481.008C381.98 484.109 380.722 487.157 379.503 490.222C379.38 490.537 379.064 490.781 378.956 491.101C378.748 491.72 378.428 492.392 378.496 493.003C378.756 495.26 379.331 497.49 379.475 499.751C379.839 505.409 379.995 511.079 380.306 516.74C380.43 518.993 380.738 521.239 380.962 523.488C381.393 527.836 381.824 532.183 382.248 536.529C382.663 540.833 383.083 545.136 383.467 549.443C383.551 550.366 383.479 551.301 383.503 552.228C383.635 558.03 383.822 563.831 383.871 569.636C383.878 570.855 383.075 572.102 383.171 573.296C383.487 577.336 384.046 581.355 384.501 585.382C384.713 587.268 384.853 589.166 385.145 591.036C385.224 591.559 385.64 592.327 386.06 592.451C388.617 593.193 389.468 595.539 389.764 597.484C390.271 600.821 390.059 604.297 389.872 607.697C389.624 612.148 389.164 616.591 388.685 621.026C388.401 623.667 387.978 626.304 387.446 628.905C387.322 629.509 386.591 630.259 385.988 630.444C384.15 631.003 382.22 631.259 380.37 631.782C379.995 631.89 379.563 632.641 379.563 633.097C379.571 634.399 379.986 635.721 379.878 637.004C379.591 640.424 380.026 644.331 378.492 647.116C376.435 650.848 377.734 654.404 377.062 658.196C379.327 657.473 380.083 658.591 380.334 660.489C381.189 666.954 380.594 673.115 376.722 678.637C376.455 679.016 376.247 679.436 376.083 679.712C376.754 680.834 377.381 681.877 378.097 683.068C377.238 683.24 376.65 683.355 375.995 683.483C375.943 683.068 375.887 682.62 375.799 681.885C375.484 682.421 375.144 682.728 375.156 683.02C375.24 685.193 375.444 687.363 375.508 689.536C375.548 690.927 375.412 692.322 375.364 693.716C375.336 694.487 375.044 695.418 375.364 696.005C377.174 699.297 376.179 702.633 375.759 705.974C375.663 706.749 375.744 707.58 375.488 708.299C375.036 709.574 374.977 711.128 372.97 711.316C371.308 711.472 371.692 713.653 371.912 713.981C373.73 716.654 373.498 719.814 374.293 722.703C375.872 728.437 377.178 734.246 378.928 739.923C381.549 748.41 384.477 756.804 387.234 765.251C388.377 768.755 389.676 772.243 390.423 775.835C390.978 778.504 390.766 781.329 390.903 784.241C391.146 784.194 391.905 783.986 392.68 783.89C394.89 783.618 397.107 783.182 399.321 783.195C402.325 783.207 404.511 785.635 405.526 788.808C407.456 794.837 409.149 801.074 413.457 805.954C416.929 809.889 420.804 813.463 424.476 817.225C427.029 819.836 429.998 821.626 433.518 822.782C436.694 823.829 439.123 825.956 440.187 829.433C440.542 830.589 441.481 831.824 442.508 832.464C444.63 833.808 446.368 835.359 446.455 837.938C446.555 840.904 446.519 843.903 446.124 846.837C445.872 848.711 442.532 850.378 440.59 850.281C438.792 850.184 436.97 850.249 435.18 850.424C430.881 850.85 426.502 852.136 422.323 851.658C418.147 851.173 414.384 852.563 410.436 852.55C408.095 852.543 405.661 851.942 403.432 851.147C396.428 848.653 389.752 845.454 383.79 840.923C380.782 838.636 377.35 836.729 374.885 833.963C373.223 832.095 371.029 830.673 369.798 828.36C369.89 828.25 370.058 828.121 370.126 827.953C371.001 825.839 372.407 823.778 372.627 821.6C373.262 815.292 373.438 808.946 373.754 802.608C373.798 801.717 373.462 800.798 373.562 799.919C373.882 797.051 374.245 794.182 374.785 791.349C374.889 790.802 375.823 790.17 376.462 790.051C376.85 789.979 377.41 790.81 378.001 791.329C378.656 790.047 379.387 788.852 378.804 786.942C378.408 785.64 378.688 783.77 380.255 782.759C381.525 781.936 382.372 782.048 382.712 783.75C382.791 784.15 383.494 784.421 383.91 784.753C384.138 784.941 384.366 785.124 384.594 785.312C384.658 785.224 384.721 785.137 384.79 785.049C384.554 784.868 384.314 784.689 384.078 784.509C382.556 780.741 380.838 777.045 379.559 773.198C377.018 765.562 374.944 757.767 372.263 750.188C369.762 743.12 366.466 736.335 363.993 729.259C362.119 723.898 361.008 718.276 359.514 712.778C359.398 712.351 359.007 711.795 358.623 711.672C355.327 710.612 354.032 708.571 354.472 705.339C355.638 704.855 356.649 704.431 357.66 704.012C357.636 703.849 357.616 703.684 357.592 703.521C357.22 703.377 356.853 703.237 356.749 703.197C357.848 698.702 358.427 694.323 356.418 689.94C356.07 689.181 355.67 688.378 355.59 687.567C355.398 685.645 354.959 683.883 353.745 682.304C350.748 678.405 351.187 674.134 352.562 669.794C352.833 668.932 352.977 667.989 353.421 667.222C354.867 664.721 354.036 662.123 353.916 659.55C353.88 658.82 354.048 658.06 353.904 657.357C353.728 656.498 353.269 655.699 353.029 654.844C352.842 654.177 352.91 653.425 352.67 652.782C350.715 647.496 353.856 644.647 357.704 642.114C358.192 641.79 358.663 641.439 358.695 641.415C358.088 639.181 357.544 637.176 356.941 634.95C351.971 635.673 349.078 631.978 346.405 628.166C341.806 621.614 338.737 614.333 336.627 606.634C336.56 606.387 336.324 606.103 336.392 605.915C337.65 602.407 335.617 599.639 334.37 596.69C332.748 592.85 331.142 589.006 329.5 585.174C329.34 584.795 329.056 584.399 328.716 584.18C323.239 580.58 320.566 574.914 318.077 569.253C315.903 564.306 314.297 559.108 312.435 554.018C310.993 557.482 309.478 561.062 308.008 564.662C306.442 568.493 304.824 572.305 303.409 576.193C302.387 579.002 301.567 581.891 300.808 584.783C297.608 596.981 294.136 609.112 291.986 621.565C291.12 626.58 289.941 631.542 288.905 636.528C288.854 636.788 288.83 637.056 288.822 637.319C288.686 641.087 288.518 644.855 288.427 648.623C288.143 660.497 287.791 672.372 287.651 684.246C287.528 694.471 287.484 704.703 287.735 714.92C287.879 720.685 288.77 726.43 289.181 732.196C289.517 736.851 289.697 741.514 289.841 746.181C289.972 750.471 290 754.766 289.996 759.062C289.996 760.432 289.645 761.803 289.621 763.173C289.581 765.507 289.593 767.844 289.729 770.173C289.861 772.395 290.32 774.6 290.376 776.818C290.432 779.055 290.78 780.458 292.354 782.076C292.993 782.735 293.764 783.262 294.412 783.914C294.747 784.249 295.17 784.725 295.167 785.137C295.163 786.383 294.895 787.629 294.887 788.876C294.887 789.412 295.115 790.139 295.503 790.454C296.929 791.621 297.16 792.971 296.988 794.769C296.777 796.967 297.136 799.216 297.16 801.442C297.169 802.333 296.753 803.252 296.873 804.112C297.061 805.456 296.957 806.761 298.635 807.763C304.201 811.072 308.224 815.984 311.676 821.438C310.645 821.781 310.426 823.248 311.516 824.327C313.742 826.531 316.175 828.521 318.52 830.602C318.884 830.926 319.295 831.229 319.575 831.617C320.482 832.89 321.273 834.254 322.224 835.488C323.295 836.884 323.93 838.209 322.663 839.844C322.46 840.109 322.799 840.749 322.791 841.214C322.771 842.397 323.023 843.728 322.588 844.743C321.305 847.748 318.836 849.454 315.631 850.023C311.316 850.785 307.017 851.755 302.666 852.162C298.839 852.53 294.947 852.149 291.091 852.278C286.073 852.446 281.067 852.918 276.049 852.996C273.747 853.034 271.441 852.414 269.128 852.169C266.919 851.929 267.134 850.346 267.07 848.795C264.278 847.761 264.17 846.701 264.326 844.181C264.35 843.767 264.302 843.069 264.074 842.966C262.272 842.132 263.031 840.51 262.691 839.178C261.697 835.262 264.561 831.966 264.209 828.218C264.002 826.001 263.519 823.81 263.199 821.6C262.907 819.577 263.007 817.832 264.385 815.932C265.916 813.819 266.599 811.085 267.602 808.603C269.476 803.976 268.165 799.624 266.455 795.285C265.812 793.654 265.337 791.953 264.885 790.254C264.597 789.176 266.152 787.574 267.406 787.53C269.108 787.47 271.102 785.088 270.886 783.334C270.043 776.41 268.489 769.618 267.171 762.781C265.536 754.307 262.024 746.476 259.647 738.27C257.146 729.631 254.652 720.985 252.019 712.386C250.857 708.591 249.207 704.943 248.044 701.147C246.818 697.14 246.35 692.849 244.74 689.021C242.71 684.195 243.621 679.316 243.285 674.453C242.95 669.619 242.866 664.785 243.757 660.018C244.092 658.228 243.149 656.582 243.769 654.832C244.112 653.857 244.608 652.714 244.392 651.799C243.645 648.635 245.359 645.842 246.198 643.021C247.7 637.983 248.843 633.077 250.329 628.034C250.669 626.879 252.415 625.369 252.032 624.079C249.986 617.218 250.178 610.175 249.99 603.123C249.846 597.777 248.995 592.446 248.455 587.076C246.586 586.581 244.856 586.005 243.082 585.71C242.303 585.578 241.348 585.87 240.608 586.241C239.33 586.885 238.295 586.533 237.744 585.466C236.617 583.293 235.211 581.179 235.63 578.474C235.762 577.615 235.494 576.653 235.247 575.785C235.043 575.078 234.591 574.438 234.248 573.771C233.66 574.335 232.881 574.798 232.514 575.482C230.084 580.024 227.867 584.683 225.334 589.166C223.336 592.698 220.184 593.837 216.128 593.05C212.748 592.391 209.156 592.598 205.88 591.651C202.2 590.584 198.748 588.703 195.244 587.076C191.253 585.227 187.345 583.185 183.329 581.391C180.185 579.985 176.896 578.914 173.736 577.539C168.534 575.278 165.01 571.003 161.346 566.915C158.965 564.258 159.261 561.397 161.134 558.768C164.423 554.154 167.998 549.742 171.347 545.168C173.812 541.796 176.198 538.356 178.435 534.832C179.162 533.689 179.402 532.203 179.717 530.84C180.081 529.258 180.292 527.635 180.544 526.029C180.712 524.939 180.908 523.844 180.96 522.745C181.032 521.195 180.976 519.641 180.976 518.01C180.025 517.311 178.551 516.64 177.708 515.502C176.821 514.303 175.938 512.577 176.121 511.23C176.473 508.641 177.54 506.056 179.693 504.358C180.345 503.842 181.727 504.234 182.774 504.238C183.433 504.238 184.1 504.246 184.756 504.326C186.969 504.602 186.985 502.856 187.317 501.493C187.792 499.539 188.008 497.51 188.631 495.612C188.891 494.821 189.81 494.065 190.613 493.662C192.926 492.5 195.316 491.48 197.709 490.486C200.25 489.431 202.651 490.39 204.957 491.309C207.526 492.332 209.991 493.614 212.505 494.773C212.796 494.909 213.107 494.997 213.575 495.173C213.939 493.638 214.11 492.136 214.646 490.773C216.428 486.218 218.525 481.784 220.147 477.173C221.458 473.449 222.217 469.534 223.284 465.718C224.155 462.605 221.61 461.275 220.156 459.325C215.477 453.06 208.441 449.532 202.895 444.298C199.479 441.074 196.179 437.654 193.354 433.918C192.167 432.343 191.952 429.727 192.007 427.605C192.079 424.816 192.754 422.023 193.378 419.278C193.646 418.103 194.493 417.077 194.956 415.934C195.212 415.307 195.548 414.352 195.268 413.936C194.389 412.634 195.16 411.783 195.619 410.668C196.474 408.59 196.946 406.357 197.737 404.247C198.78 401.463 199.927 398.713 201.125 395.992C202.839 392.085 204.721 388.249 206.367 384.318C207.13 382.492 207.518 380.51 208.037 378.724C203.954 379.024 201.066 376.019 197.605 374.661C195.012 373.642 193.37 368.36 194.277 365.671C194.693 364.449 195.46 363.058 196.487 362.379C199.663 360.281 201.022 356.877 202.883 353.9C204.573 351.199 205.368 347.951 206.967 345.178C212.084 336.296 217.271 327.45 222.673 318.74C226.58 312.439 230.724 306.271 235.055 300.257C237.1 297.412 239.574 294.759 243.805 295.075C244.848 295.151 245.983 294.012 247.077 293.429C247.133 293.533 247.205 293.628 247.289 293.708L247.261 293.704ZM237.16 391.805C236.573 392.037 235.994 392.105 235.654 392.429C234.599 393.431 233.393 394.39 232.686 395.621C229.461 401.235 226.392 406.936 223.26 412.606C223.152 412.806 223.008 413.066 222.825 413.13C221.278 413.657 221.518 414.683 222.126 415.734C224.395 419.654 226.692 423.557 228.99 427.461C229.317 428.017 229.593 428.727 230.096 429.031C231.084 429.626 232.186 430.174 233.297 430.322C233.58 430.358 234.272 428.855 234.427 427.996C234.819 425.815 234.939 423.59 235.302 421.4C236.421 414.604 238.359 408.031 240.884 401.631C242.215 398.262 241.24 395.41 239.014 392.848C238.583 392.353 237.807 392.157 237.164 391.809L237.16 391.805ZM253.094 405.39C252.711 404.179 252.455 402.797 251.82 401.618C251.5 401.031 250.485 400.819 249.786 400.439C249.634 401.163 249.422 401.882 249.35 402.614C249.315 402.973 249.686 403.385 249.618 403.724C249.135 406.113 249.646 408.87 247.157 410.552C246.853 410.76 246.637 411.16 246.482 411.515C245.475 413.773 244.384 416.002 243.541 418.319C242.882 420.133 242.494 422.047 242.075 423.937C241.839 425 242.063 426.246 241.595 427.165C240.412 429.487 240.269 431.097 243.321 433.534C245.691 430.002 248.06 426.466 250.429 422.934C250.605 423.162 250.781 423.394 250.957 423.621C251.82 423.262 253.07 423.134 253.454 422.491C254.026 421.532 253.757 420.493 252.347 419.866C251.053 419.291 250.913 417.96 251.856 416.817C254.065 414.128 256.366 411.511 258.56 408.806C259.064 408.187 259.751 406.933 259.519 406.653C258.856 405.838 257.821 405.014 256.83 404.863C255.648 404.679 254.357 405.186 253.102 405.398L253.094 405.39ZM355.662 231.375C358.279 230.768 358.983 228.498 360.717 226.409C358.455 226.908 356.785 227.279 355.175 227.636C355.338 228.89 355.49 230.04 355.662 231.375ZM384.649 785.448C386.148 786.942 386.954 786.955 387.95 785.448H384.649Z" fill="#FFFCF9"/>
<path d="M247.05 293.421C247.214 293.413 247.377 293.405 247.542 293.397L247.262 293.701C247.174 293.617 247.105 293.525 247.05 293.421Z" fill="#FFFCF9"/>
<path d="M245.715 660.873C245.559 665.568 245.115 670.279 245.331 674.957C245.535 679.356 246.134 683.791 247.093 688.09C249.23 697.659 251.68 707.161 254.073 716.674C254.369 717.856 255.092 718.927 255.616 720.05C255.616 720.174 255.643 720.294 255.699 720.405C255.803 720.925 255.911 721.441 256.015 721.96C255.915 722.02 255.815 722.076 255.715 722.135C255.815 722.239 255.915 722.343 256.015 722.448C256.71 724.697 257.401 726.946 258.097 729.196L259.295 732.792C259.955 734.921 260.618 737.055 261.277 739.184C261.416 739.852 261.553 740.515 261.692 741.182C264.733 751.203 267.769 761.223 270.814 771.244C271.469 773.398 272.273 775.519 272.76 777.709C273 778.775 273.243 780.166 271.545 780.693C271.118 780.825 270.87 781.541 270.546 781.98C266.934 780.39 266.419 776.574 264.757 773.546C264.365 773.094 263.97 772.647 263.578 772.195C263.558 772.091 263.498 772.027 263.399 772.003C263.327 771.584 263.251 771.168 263.179 770.749C263.223 770.301 263.41 769.806 263.291 769.406C261.333 762.878 259.303 756.369 257.349 749.836C253.562 737.159 249.73 724.497 246.074 711.78C244.172 705.163 242.514 698.47 240.936 691.766C240.261 688.897 239.897 685.929 239.701 682.984C239.413 678.625 239.038 674.218 239.354 669.883C239.801 663.698 240.812 657.549 241.639 651.392C241.982 648.818 242.47 646.266 242.894 643.704C243.253 642.634 243.617 641.563 243.976 640.492C245.627 635.142 247.105 629.728 250.081 624.893C250.365 624.434 250.529 623.711 250.385 623.211C249.254 619.308 248.044 615.428 246.821 611.557C246.698 611.169 246.338 610.858 246.086 610.51L245.706 608.129C245.351 605.728 245.039 603.318 244.62 600.925C244.408 599.706 244.005 598.524 243.689 597.321L243.301 594.963C243.249 593.026 243.329 591.064 243.022 589.166C242.965 588.83 241.308 588.651 240.376 588.59C239.118 588.511 237.756 588.923 236.912 587.52C236.784 587.308 236.521 587.14 236.473 586.921C235.706 583.273 234.967 579.621 234.168 575.725C233.293 578.055 232.458 580.288 231.618 582.522C231.526 582.757 231.431 582.989 231.339 583.225C231.519 583.109 231.694 582.993 231.874 582.873L233.152 581.922C232.014 586.469 229.521 589.905 225.554 592.139C219.712 595.427 213.543 595.871 207.258 593.717C203.398 592.394 199.655 590.728 195.891 589.23C195.923 589.474 195.987 589.969 196.034 590.333C192.934 588.547 190.173 586.27 186.561 585.602C185.355 585.091 184.148 584.579 182.942 584.068C178.283 581.031 173.5 578.171 169.013 574.902C165.781 572.545 162.92 569.661 159.956 566.948C159.524 566.556 159.432 565.793 159.185 565.201C159.34 565.038 159.496 564.874 159.648 564.71C160.807 565.197 162.077 565.525 163.112 566.204C170.419 571.027 177.636 575.985 184.979 580.748C187.021 582.074 189.386 582.901 191.284 583.804C197.114 574.822 202.783 566.08 208.456 557.338C209.148 556.423 209.835 555.508 210.526 554.597C211.593 553.131 212.66 551.668 213.727 550.202C214.242 549.735 214.758 549.267 215.297 548.78C214.522 548.512 213.919 548.301 213.315 548.092C206.535 544.881 199.754 541.664 192.97 538.455C189.358 536.75 185.743 535.055 182.131 533.358C181.735 533.122 181.34 532.89 180.668 532.494C180.452 533.897 180.276 535.027 180.101 536.158C177.448 540.649 175.091 545.36 172.062 549.579C168.594 554.41 164.538 558.817 160.703 563.379C160.299 563.859 159.676 564.154 159.097 564.578C158.649 563.995 158.218 563.431 157.79 562.868C159.888 559.643 161.953 556.463 164.023 553.287C168.222 546.838 172.385 540.37 176.653 533.964C177.296 532.998 177.412 532.206 177.42 531.064C177.436 528.687 177.935 526.305 178.315 523.94C178.61 522.098 179.03 520.276 179.414 518.347C178.583 518.25 177.852 518.25 177.168 518.074C172.861 516.96 172.014 515.158 173.508 510.315C174.403 507.411 176.034 505.237 178.682 503.447C180.505 502.216 181.735 502.192 183.541 503.395C185.059 498.637 185.99 493.395 190.537 491.065C194.664 488.948 199.259 487.289 204.265 487.928C205.464 481.927 206.651 475.994 207.833 470.061C207.705 470.129 207.578 470.201 207.45 470.268C207.202 469.481 206.547 468.535 206.779 467.932C207.574 465.87 209.923 464.367 210.858 465.195C211.329 465.61 211.401 467.444 211.074 467.636C209.152 468.754 210.027 470.784 209.344 472.275C208.792 473.473 208.796 474.927 208.557 476.266C208.557 476.797 208.549 477.333 208.549 477.864C208.253 479.574 207.958 481.28 207.665 482.99C207.402 484.197 207.138 485.404 206.878 486.61C206.191 488.08 205.979 489.347 207.977 490.01C208.988 490.346 209.923 490.918 210.894 491.381C212.676 491.932 213.611 491.117 214.022 489.451C214.422 488.652 214.822 487.853 215.221 487.053C215.657 485.595 216.096 484.133 216.532 482.674C217.295 479.738 218.054 476.806 218.817 473.869C219.249 472.562 219.68 471.251 220.111 469.945C220.875 467.912 221.658 465.885 222.361 463.832C222.421 463.66 221.929 463.305 221.698 463.037C220.898 462.238 220.1 461.438 219.3 460.64C219.033 460.508 218.769 460.372 218.501 460.24C216.499 459.213 214.494 458.183 212.492 457.156C204.809 452.037 198.26 445.577 191.376 439.5C187.888 436.423 187.308 432.831 187.752 428.712C188.044 425.991 188.475 423.282 188.939 420.585C189.322 418.339 189.91 417.888 191.724 418.343C193.713 413.269 195.687 408.159 197.721 403.077C199.407 398.861 201.177 394.678 202.883 390.475C203.099 389.948 203.178 389.364 203.322 388.809C203.91 387.614 204.493 386.424 205.08 385.229C205.768 384.222 206.459 383.219 207.146 382.213L208.005 382.576C207.37 384.905 206.735 387.235 206.099 389.56C205.724 390.491 205.344 391.426 204.969 392.357C204.569 393.424 204.17 394.487 203.77 395.553L202.46 399.133C199.099 406.045 195.703 412.942 192.435 419.898C192.075 420.661 192.523 421.776 192.487 422.722C192.399 424.952 192.291 427.185 192.103 429.407C191.991 430.77 192.183 431.848 193.438 432.716C194.428 433.399 195.188 434.426 196.047 435.296C196.722 435.931 197.393 436.567 198.068 437.206C203.035 441.537 207.729 446.248 213.035 450.111C220.387 455.462 228.206 460.176 235.822 465.162C237.232 466.03 238.646 466.901 240.057 467.767C243.621 469.885 247.181 472.007 250.949 474.248C252.782 471.787 254.82 469.054 256.858 466.321C257.401 465.646 257.941 464.971 258.484 464.296C260.841 461.407 263.199 458.518 265.632 455.534C262.959 453.384 259.399 452.193 257.377 449.221C257.561 448.917 257.741 448.609 257.925 448.306C259.427 448.921 260.965 449.46 262.416 450.175C264.089 451.002 265.684 451.993 267.314 452.912C268.085 453.348 268.856 453.783 269.627 454.219C271.29 455.054 272.956 455.889 275.061 456.944C275.269 454.547 275.545 452.429 275.557 450.311C275.557 449.908 274.538 449.48 273.97 449.089C271.209 447.171 268.433 445.277 265.696 443.327C265.244 443.004 264.961 442.448 264.473 441.849C263.722 442.24 262.879 442.68 262.036 443.119C260.837 443.778 259.639 444.442 258.44 445.101C255.192 447.195 251.907 449.236 248.703 451.398C245.779 453.372 244.652 452.581 242.87 450.391C240.389 447.343 238.079 444.15 235.754 440.978C232.246 436.187 228.778 431.365 225.31 426.542C224.706 425.703 224.195 424.796 223.643 423.921C222.98 422.819 222.313 421.712 221.649 420.609C220.895 418.715 220.219 416.785 219.333 414.959C219.084 414.456 218.225 414.068 217.59 413.969C214.646 413.497 211.665 413.245 208.736 412.69C207.678 412.49 206.739 411.659 205.744 411.12C206.127 410.309 206.511 409.498 206.898 408.69C211.186 409.641 215.473 410.592 219.756 411.547C220.067 411.615 220.367 411.743 221.03 411.959C225.11 405.118 229.237 398.198 233.485 391.078C226.041 388.066 218.473 385.005 210.902 381.945C209.967 381.577 209.032 381.21 208.097 380.838C206.946 380.503 206.059 378.952 204.509 380.258C204.214 380.507 202.995 379.875 202.339 379.44C200.098 377.945 197.916 376.359 195.711 374.809C195.024 374.002 194.337 373.195 193.645 372.384C193.402 370.945 192.914 369.499 192.966 368.072C193.054 365.535 193.122 362.906 195.536 361.152C198.804 358.775 199.87 354.903 201.852 351.655C206.159 344.595 210.474 337.535 214.677 330.415C218.082 324.645 221.326 318.78 224.658 312.971C228.298 306.626 232.138 300.413 237.256 295.111C240.389 291.867 244.9 290.888 248.683 294.332C248.364 292.166 249.41 291.308 251.248 291.207H254.045L260.398 292.582C261.588 294.348 262.588 292.546 263.678 292.406C264.797 291.982 265.92 291.555 267.075 291.116C266.407 289.561 266.894 288.43 268.577 288.103C271.174 287.595 273.803 287.252 276.42 286.837C277.491 286.904 278.517 288.578 279.632 286.92C282.025 285.286 284.415 283.652 286.808 282.014C289.185 282.513 288.638 280.384 289.249 279.301C289.825 277.93 290.404 276.56 290.979 275.186C291.115 275.374 291.255 275.561 291.391 275.749C289.261 277.459 287.168 279.213 284.982 280.847C284.239 281.403 283.224 282.042 282.405 281.958C280.867 281.798 280.995 280.599 281.95 279.029C278.985 280.336 277.906 278.214 276.412 276.947C275.632 275.833 274.898 274.474 273.619 276.504C271.893 277.291 270.163 278.074 268.069 279.029C268.109 276.508 267.086 275.401 265.504 274.503C264.469 273.915 263.686 272.884 262.867 272.125C262.28 272.852 261.517 273.911 260.625 274.846C259.767 275.749 258.756 276.364 257.39 275.761C256.998 275.585 256.343 275.509 256.035 275.721C254.285 276.927 253.633 274.974 253.358 274.362C252.411 272.273 250.973 271.358 248.791 271.25C248.395 271.23 247.864 270.951 247.661 270.623C246.909 269.436 246.27 268.181 245.535 266.847H242.958C242.378 266.551 241.799 266.255 241.22 265.964C240.233 265.021 238.958 264.238 238.319 263.099C237.252 261.198 236.013 261.825 234.595 262.324C234.06 262.512 233.445 262.472 232.865 262.536C231.982 262.101 231.099 261.661 230.216 261.226C229.765 259.507 228.813 258.245 227.319 257.829C226.852 256.079 226.429 254.493 226.005 252.907C226.005 252.02 226.005 251.129 226.005 250.166H224.075C221.314 249.359 220.687 246.266 218.434 244.916C218.218 244.236 218.006 243.557 217.79 242.878C217.379 242.007 217.191 240.829 216.508 240.329C214.613 238.943 214.234 237.045 214.074 234.955C213.987 233.793 214.058 232.53 213.615 231.507C212.944 229.965 214.306 229.382 214.662 228.343C214.906 227.636 214.842 226.824 214.913 226.057C214.613 225.15 214.314 224.243 214.018 223.34L213.627 222.142L212.132 218.13C211.789 215.969 211.449 213.803 211.106 211.653C211.94 211.33 212.588 211.078 213.231 210.83C213.099 210.751 212.967 210.671 212.836 210.591L213.687 208.889C214.486 209.032 215.285 209.18 216.084 209.324C216.923 209.604 217.766 209.887 218.705 210.203C219.001 209.136 219.289 208.117 219.492 207.374C218.989 206.515 218.601 205.824 218.178 205.153C217.906 204.721 217.654 204.054 217.266 203.946C214.194 203.071 215.221 200.242 214.498 198.269C214.234 197.545 214.038 196.746 214.042 195.983C214.062 191.616 216.66 189.351 220.543 188.152C221.21 187.948 221.834 187.597 222.473 187.313C222.744 187.213 223.016 187.117 223.288 187.017H225.549C225.749 186.158 225.933 185.375 226.116 184.592C226.64 183.801 227.163 183.014 227.687 182.223C229.201 181.444 228.546 180.077 228.291 179.09C227.599 176.445 228.21 175.894 229.393 173.624C232.022 168.586 237.212 169.921 241.144 168.203C241.312 168.131 241.563 168.131 241.735 168.203C245.295 169.705 247.712 167.376 250.429 165.765C252.339 164.631 254.424 163.464 256.558 163.14C258.228 162.889 260.09 163.915 261.864 164.371C263.362 163.824 265.061 163.244 266.718 162.565C267.126 162.397 267.494 161.938 267.714 161.526C269.152 158.789 271.454 157.766 274.406 158.238C275.98 158.49 277.547 158.909 279.057 159.425C281.502 160.26 283.591 163.316 283.611 165.869C283.617 166.567 284.333 167.826 285.761 169.645C287.807 169.006 290.24 168.886 291.703 167.631C293.692 165.925 295.147 166.381 297.02 167.3C297.336 167.456 298.059 166.98 298.495 166.66C300.177 165.434 301.847 164.191 303.461 162.881C304.916 161.698 306.502 161.135 308.367 161.446C309.906 162.453 310.086 160.907 310.713 160.2C312.047 159.033 312.567 156.768 315.012 157.019C315.156 157.954 315.3 158.881 315.416 159.62C317.174 159.109 318.748 158.242 320.282 158.31C322.056 158.39 323.794 159.297 325.548 159.848C326.487 159.944 327.422 160.04 328.361 160.136C328.896 160.791 329.432 161.446 329.967 162.102C329.907 162.341 329.843 162.585 329.784 162.825C330.686 162.517 331.701 162.377 332.468 161.866C335.573 159.812 337.479 160.052 339.692 162.905C339.916 163.196 340.3 163.364 340.675 163.64C340.375 163.879 340.06 164.127 339.724 164.395C342.437 164.787 345.154 165.178 347.871 165.57C349.233 166.081 350.6 166.593 351.962 167.104C352.981 168.275 354.959 168.786 354.544 171.051C356.161 170.432 357.328 170.764 358.427 172.202C358.971 172.913 360.381 172.913 361.331 173.377C363.621 174.488 363.749 175.383 361.891 177.24C362.475 177.66 363.094 178.012 363.593 178.491C364.084 178.958 364.452 179.554 364.908 180.129C363.741 180.828 363.297 181.476 365.051 182.387C366.266 183.018 367.673 183.873 367.061 185.747C366.966 186.018 366.869 186.29 366.774 186.566C366.622 186.85 366.466 187.133 366.314 187.413C365.099 187.149 364.088 187.361 363.517 188.608C362.99 188.707 362.458 188.807 361.759 188.943C365.595 192.423 366.278 193.298 364.68 197.186C365.175 197.509 365.695 197.849 366.218 198.189C366.282 198.828 366.342 199.463 366.378 199.795H369.494C369.355 200.522 369.447 201.445 369.031 201.932C368.24 202.859 367.157 203.539 366.09 204.402C366.853 206.228 366.067 207.51 364.216 208.441C362.323 209.396 360.553 210.603 358.643 211.522C357.392 212.121 355.985 212.405 354.403 212.908C354.851 213.276 355.342 213.739 355.89 214.119C356.621 214.626 357.552 214.938 358.115 215.577C358.722 216.268 358.934 217.391 357.468 217.291C354.895 217.119 354.859 218.542 355.17 220.056C358.043 220.228 360.82 220.316 363.573 220.603C364.332 220.683 365.055 221.327 365.747 221.782C366.158 222.054 366.514 222.801 366.829 222.769C369.275 222.505 368.919 224.279 369.091 225.693C369.526 229.329 370.178 233.045 368.244 236.418C366.609 239.262 364.8 242.055 362.73 244.596C360.752 247.022 357.92 246.814 355.143 246.05C354.575 245.711 354.028 245.319 353.425 245.067C353.293 245.012 352.957 245.447 352.713 245.655C348.954 247.757 348.239 247.74 346.029 245.507C348.182 245.047 350.464 242.555 350.3 240.721C350.256 240.229 349.828 239.77 349.577 239.294C348.63 238.523 347.683 237.752 346.736 236.981C346.404 234.476 346.073 231.971 345.721 229.322C345.154 229.322 344.163 229.322 343.172 229.322C340.26 229.322 340.068 229.545 339.936 232.57C339.864 234.276 339.8 236.002 339.516 237.68C339.165 239.765 338.314 241.603 336.42 242.858C335.633 243.381 335.137 244.329 334.394 244.936C330.934 247.764 326.795 248.975 322.527 248.372C318.852 247.848 316.119 245.327 313.962 242.151C311.069 237.896 309.89 233.245 309.934 228.399C305.962 230.137 302.038 231.854 298.607 233.357C298.898 235.514 299.969 237.956 299.222 239.542C298.527 241.024 295.901 241.6 294.124 242.575C294 242.418 293.876 242.267 293.756 242.111C293.688 242.619 293.616 243.121 293.521 243.841C292.13 242.275 291.035 240.768 289.677 239.566C287.179 237.348 282.633 236.473 279.948 240.01C277.091 243.769 276.656 246.55 279.792 250.106C280.443 250.841 281.238 251.449 281.969 252.112C282.377 252.392 282.785 252.667 283.192 252.947C284.279 253.594 285.31 254.385 286.476 254.813C286.924 254.977 287.799 254.441 288.263 253.998C289.233 253.066 290.116 252.268 291.467 253.402C290.848 253.762 290.252 254.106 289.657 254.453C289.677 254.609 289.697 254.765 289.717 254.917C290.795 254.809 291.874 254.649 292.957 254.609C293.692 254.581 294.799 254.461 295.083 254.856C295.462 255.384 295.374 256.415 295.178 257.146C294.847 258.381 294.272 259.547 293.76 260.834H295.198C295.982 261.121 296.765 261.413 297.552 261.701C297.113 263.543 296.673 265.385 296.233 267.227C296.137 268.17 296.038 269.109 295.942 270.052C294.215 274.095 292.642 278.214 290.687 282.15C289.788 283.964 288.334 285.63 286.788 286.965C285.442 288.131 283.611 288.738 281.994 289.593C281.198 289.681 280.18 289.625 281.17 290.868C286.576 301.791 294.775 309.279 307.029 311.612C313.07 312.763 318.964 312.284 324.286 308.823C327.653 306.634 330.171 303.805 330.798 299.606C331.042 297.972 331.929 297.84 333.248 299.034C333.455 299.222 334.023 299.134 334.11 299.323C334.518 300.205 335.341 301.34 335.077 302.019C332.184 309.363 326.815 313.706 318.936 314.832C308.579 316.315 299.266 313.734 291.183 307.221C287.99 304.648 285.354 301.38 282.461 298.431C281.93 297.496 281.402 296.566 280.871 295.63C279.924 293.525 278.977 291.419 278.018 289.285C275.565 289.973 272.912 290.72 270.299 291.451C273.071 296.546 275.992 301.764 280.455 305.859C287.595 312.408 295.958 316.599 305.475 318.417C312.858 319.827 320.226 319.911 327.346 317.19C333.096 314.997 337.147 311.097 338.438 304.788C338.658 303.706 338.989 302.531 339.636 301.676C340.943 299.946 342.693 300.293 344.415 301.136C346.736 302.271 349.073 303.373 351.403 304.488C351.834 304.772 352.266 305.056 352.693 305.339C353.689 305.703 354.659 306.251 355.686 306.402C358.766 306.854 362.019 308.284 362.023 312.687C362.023 314.865 363.066 317.042 363.637 319.215C363.885 320.151 364.136 321.086 364.384 322.02C364.512 322.688 364.644 323.351 364.771 324.019L365.795 330.055C365.99 331.238 366.186 332.421 366.382 333.607C368.488 341.223 370.601 348.834 372.695 356.45C373.358 358.863 375.36 360.145 377.038 361.708C377.281 362.347 377.526 362.986 377.765 363.621C378.908 365.408 377.821 367.058 377.449 368.748C377.09 369.419 376.73 370.094 376.367 370.765C374.769 372.679 373.254 374.677 371.544 376.487C370.006 378.117 368.312 377.901 366.765 376.339C366.102 373.942 367.653 372.38 368.931 370.758C370.809 368.384 372.763 366.067 374.645 363.777C373.621 362.695 372.775 362.123 372.387 361.328C370.337 357.125 368.124 352.973 366.482 348.607C362.522 338.087 359.901 327.254 359.861 315.903C359.857 314.641 359.386 313.082 358.559 312.188C357.048 310.557 354.895 309.614 353.101 308.252C350.14 306.007 346.253 304.984 342.677 303.41C342.565 303.706 342.413 303.989 342.345 304.289C341.199 309.475 338.442 313.598 333.931 316.371C326.216 321.114 317.845 323.351 308.783 321.981C304.109 321.273 299.322 320.63 294.907 319.056C290.512 317.485 286.324 315.088 282.397 312.519C275.153 307.773 269.44 301.696 267.793 292.654C266.22 293.045 264.709 293.417 263.043 293.829C268.157 297.576 269.592 302.958 269.915 308.54C270.175 313.055 270.003 317.734 269.1 322.152C267.075 332.073 264.525 341.89 262.1 351.727C260.426 358.515 258.42 365.224 256.898 372.044C255.208 379.603 253.941 387.255 252.379 394.846C252.155 395.933 252.299 396.556 252.899 397.491C254.824 400.48 256.658 403.548 258.232 406.733C259.287 408.866 258.544 409.917 256.471 411.18C255.252 411.922 253.67 412.978 253.398 414.156C253.022 415.802 253.717 417.696 253.929 419.307C259.347 417.764 264.513 416.29 269.496 414.871C267.95 414.62 266.207 414.332 264.461 414.048C264.469 413.868 264.477 413.689 264.485 413.513C264.969 413.385 265.464 413.114 265.936 413.149C267.901 413.309 269.859 413.553 271.817 413.789C273.124 413.949 274.398 414.228 275.505 413.081C275.912 412.658 276.652 412.354 277.243 412.35C283.06 412.318 288.886 412.171 294.691 412.438C299.873 412.678 305.035 413.409 310.209 413.877C310.445 413.897 310.725 413.445 310.985 413.213C310.965 413.225 311.024 413.262 311.157 413.321C311.117 413.517 311.077 413.713 311.04 413.905C311.5 413.917 311.956 413.925 312.415 413.936C312.771 413.941 313.126 413.945 313.482 413.949C315.723 414.264 317.965 414.595 320.21 414.895C323.019 415.271 325.832 415.627 328.801 416.01V412.063C329.468 412.422 330.071 412.546 330.283 412.902C330.898 413.936 331.358 414.652 332.844 414C333.854 413.557 335.529 414.24 336.268 413.637C339.68 410.844 342.869 407.779 346.097 404.843C344.083 403.456 342.305 402.234 340.611 401.067C341.933 397.615 342.125 398.346 344.586 399.205C346.253 399.785 347.787 400.847 349.249 401.882C351.567 403.516 351.295 405.558 348.922 407.041C345.602 409.11 342.413 411.391 339.173 413.585C346.565 413.976 353.812 413.573 360.688 415.754C362.051 415.031 363.381 414.328 364.859 413.545C364.524 413.321 364.2 413.218 364.057 412.998C360.269 407.292 356.113 401.786 352.841 395.793C350.148 390.862 348.414 385.393 346.464 380.086C346.009 378.848 346.397 377.302 346.397 375.524C347.032 375.963 347.375 376.071 347.491 376.295C348.33 377.961 349.114 379.659 349.932 381.338C351.842 385.253 353.764 389.165 355.682 393.08C358.247 397.12 360.86 401.131 363.361 405.21C364.704 407.4 365.946 409.665 367.073 411.975C368.12 414.12 367.669 415.439 365.587 417.268C368.975 422.291 370.793 427.973 372.175 433.79C372.595 435.552 372.415 437.502 372.235 439.34C372.171 439.991 371.292 440.558 370.457 441.561C371.692 441.146 372.647 440.99 373.418 440.53C375.488 439.296 377.206 439.575 378.952 441.21C381.9 443.97 384.226 446.967 383.838 451.31C383.211 452.11 382.472 452.848 381.992 453.723C381.733 454.199 381.904 454.914 381.88 455.521C382.676 457.395 383.471 459.269 384.266 461.143C384.945 462.849 385.628 464.559 386.307 466.265C386.667 469.254 387.314 472.242 387.29 475.231C387.275 477.425 386.375 479.606 385.872 481.795C385.6 482.451 385.333 483.11 385.06 483.765C384.797 484.169 384.529 484.569 384.266 484.972C383.738 485.647 383.207 486.323 382.68 486.998C382.548 487.13 382.424 487.273 382.276 487.39C378.54 490.386 379.24 494.058 380.166 498.125C381.265 502.939 381.573 507.926 382.312 512.825C382.991 517.316 383.846 521.782 384.529 526.278C385.177 530.533 385.72 534.808 386.287 539.075C386.735 542.439 387.174 545.803 387.566 549.176C387.85 551.641 388.277 554.122 388.233 556.587C388.174 559.871 388.888 562.856 390.443 565.712C391.662 567.954 391.138 568.745 388.513 568.953C387.37 569.045 386.235 569.217 385.592 569.297C386.356 576.4 387.094 583.285 387.87 590.525C388.373 590.549 389.308 590.428 390.123 590.684C390.662 590.856 391.318 591.503 391.433 592.043C391.937 594.404 392.517 596.797 392.604 599.194C392.784 604.241 392.852 609.303 392.624 614.342C392.392 619.476 390.582 624.21 388.006 628.753C388.413 628.837 388.817 628.921 389.408 629.041C388.98 629.448 388.713 629.876 388.333 630.036C386.06 630.991 383.742 631.85 381.481 632.833C381.037 633.024 380.394 633.767 380.486 634.016C381.657 637.16 379.599 638.794 377.581 640.44C377.006 640.907 376.335 641.259 375.708 641.663C375.779 641.835 375.851 642.006 375.923 642.174C377.034 641.775 378.129 641.339 379.26 640.999C379.679 640.876 380.182 640.904 380.618 640.999C381.413 641.171 382.276 641.299 382.939 641.719C383.511 642.078 384.246 642.826 384.23 643.381C384.066 649.114 383.798 654.848 383.487 660.577C383.291 664.113 382.983 667.645 382.687 671.177C382.451 673.97 382.684 676.955 381.728 679.484C380.95 681.546 378.748 683.084 377.118 684.794C376.654 685.281 375.979 685.569 375.52 685.869C377.173 690.196 377.301 694.567 376.998 698.946C376.794 701.862 376.411 704.788 375.855 707.656C375.468 709.646 375.128 711.931 372.268 712.071C376.075 718.408 377.565 725.5 379.815 732.28C382.779 741.214 385.369 750.271 388.07 759.29C390.307 766.765 392.476 774.264 394.586 781.444C396.964 781.333 399.512 780.989 402.026 781.157C405.534 781.389 407.279 783.662 407.915 787.026C408.143 788.241 408.81 789.375 409.062 789.999C412.861 789.955 416.266 789.851 419.666 789.895C422.107 789.927 423.805 791.102 424.121 793.667C424.436 796.236 423.377 798.417 421.276 799.712C419.574 800.759 417.516 801.29 415.558 801.837C414.399 802.161 413.732 802.508 414.647 803.614C418.287 807.996 421.943 812.365 425.695 816.656C426.982 818.123 428.48 819.454 430.07 820.585C430.829 821.122 432.028 821.038 433.031 821.238C437.35 822.123 440.57 824.573 442.835 828.289C443.386 829.193 443.662 829.646 444.905 829.168C446.623 828.502 448.029 829.762 448.245 831.636C448.565 834.415 448.893 837.207 449.392 839.96C450.439 845.706 446.651 850.74 440.422 851.832C437.685 852.311 434.968 852.931 432.243 853.487C431.045 853.616 429.846 853.752 428.648 853.887C424.52 854.152 420.389 854.417 416.261 854.682L414.28 854.973C413.876 854.85 413.456 854.598 413.065 854.644C408.234 855.128 403.776 853.713 399.58 851.638C394.155 848.956 388.729 846.197 383.639 842.953C379.99 840.62 376.898 837.433 373.557 834.629C371.316 832.354 369.075 830.079 366.834 827.81C367.029 825.232 367.601 822.808 369.467 820.857C369.738 820.572 369.946 820.003 369.862 819.642C368.544 813.974 369.482 808.299 369.798 802.632C369.95 799.899 370.289 797.163 370.757 794.465C371.117 792.4 371.82 790.395 372.455 788.045C373.738 787.825 374.613 786.95 375.352 785.093C375.947 783.59 378.368 782.815 380.115 781.624C378.097 775.403 375.883 768.699 373.746 761.966C371.76 755.718 369.87 749.441 367.908 743.184C365.93 736.875 363.865 730.59 361.935 724.269C361.016 721.253 360.373 718.152 359.478 715.123C359.338 714.644 358.563 714.085 358.035 714.033C355.13 713.749 351.191 710.361 350.8 707.468C350.72 706.893 351.207 705.934 351.71 705.646C352.921 704.963 354.299 704.572 355.93 703.94C355.93 701.787 355.89 699.206 355.946 696.628C355.978 695.33 356.385 694.015 356.257 692.745C356.157 691.746 355.63 690.711 355.059 689.852C353.361 687.295 353.317 687.327 354.675 684.466C353.221 684.039 351.655 683.843 350.408 683.108C349.609 682.637 348.77 681.338 348.826 680.463C349.134 675.361 349.501 670.242 350.252 665.188C350.732 661.96 351.974 658.855 352.697 655.651C352.849 654.988 352.27 654.117 351.926 653.389C350.668 650.728 350.408 647.492 347.332 645.862C347.332 645.642 347.332 645.422 347.332 645.206C350.679 643.736 354.032 642.266 357.248 640.852V635.669C355.546 635.669 354.092 635.585 352.649 635.686C347.931 636.005 344.727 633.659 341.966 630.111C338.274 625.365 336.835 619.659 334.758 614.214C333.619 611.225 332.413 608.26 331.377 605.236C331.218 604.769 331.633 603.778 332.08 603.498C332.984 602.931 334.086 602.683 335.13 602.295C333.547 599.127 331.925 595.919 330.343 592.686C329.38 590.721 328.493 588.718 327.554 586.737C327.158 585.898 326.703 585.518 325.596 585.866C322.395 586.873 321.193 586.338 319.599 583.425C318.74 581.858 317.054 580.033 317.349 578.674C318.428 573.707 315.104 569.98 314.337 565.581C313.75 562.217 312.231 558.993 311.824 555.624C311.492 552.895 312.08 550.022 312.471 547.246C313.158 542.387 313.969 537.545 314.797 532.71C315.588 528.095 316.518 523.501 317.285 518.882C317.948 514.886 318.464 510.87 319.048 506.859C318.844 506.795 318.64 506.731 318.436 506.672C317.901 507.91 317.137 509.101 316.874 510.396C315.316 518.107 313.69 525.814 312.447 533.581C311.488 539.582 311 545.663 310.417 551.721C310.138 554.613 310.329 557.562 309.946 560.435C309.33 565.033 308.415 569.588 307.552 574.575C307.808 574.738 308.523 575.198 309.239 575.653C310.537 576.472 311.077 577.563 310.489 579.073C309.822 580.796 309.263 582.57 308.444 584.212C308.172 584.751 307.253 585.219 306.597 585.267C304.696 585.406 302.774 585.315 301.467 585.315C301.044 588.903 300.932 592.303 300.201 595.563C298.591 602.751 296.501 609.831 294.927 617.023C293.704 622.608 293.025 628.306 291.982 633.935C291.603 635.977 290.863 637.955 290.32 639.968C290.236 640.281 290.248 640.648 290.308 640.971C291.603 648.247 291.299 655.539 290.879 662.875C290.48 669.891 290.44 676.935 290.452 683.967C290.46 690.216 290.868 696.465 290.892 702.717C290.931 712.962 290.819 723.21 290.727 733.455C290.707 735.852 290.428 738.25 290.444 740.647C290.464 743.607 290.768 746.564 290.784 749.524C290.835 759.178 290.815 768.83 290.811 778.484C290.811 779.039 290.711 779.591 290.66 780.134C292.31 780.45 294.064 780.629 295.71 781.149C297.009 781.56 297.516 782.695 297.064 784.086C296.697 785.221 296.457 786.211 294.703 785.648C289.601 784.009 284.874 784.769 281.278 788.972C280.016 790.446 279.484 792.54 278.617 794.35C278.885 794.322 279.149 794.294 279.416 794.266C279.92 795.037 280.775 795.772 280.855 796.583C280.998 798.03 281.79 797.998 282.761 797.866C286.045 797.422 289.329 796.951 292.697 796.475C292.825 794.61 292.789 792.572 293.153 790.602C293.501 788.705 294.539 788.528 295.854 789.915C296.121 790.199 296.445 790.439 296.745 790.694C296.976 790.893 297.216 791.089 297.324 791.182C301.012 788.449 304.863 789.403 308.735 790.714C309.666 791.401 310.258 792.256 310.07 793.483C310.625 796.32 309.155 799.053 306.562 799.939C306.258 800.043 305.802 800.063 305.579 799.904C305.411 799.784 305.387 799.252 305.499 798.993C306.078 797.654 306.721 796.34 307.589 794.494C304.28 793.886 301.276 793.335 298.275 792.784C298.111 792.971 297.948 793.163 297.783 793.351C298.303 794.725 298.818 796.1 299.466 797.806C298.431 799.48 299.786 801.689 299.921 803.905C300.101 804.958 300.281 806.012 300.46 807.065C300.588 807.537 300.568 808.274 300.868 808.448C305.403 811.059 308.016 815.467 311.188 819.351C311.808 820.107 312.403 820.889 313.01 821.658C313.874 822.744 314.145 823.81 312.842 824.767C318.68 828.037 323.299 832.218 324.621 839.34C326.443 839.56 328.309 840.083 328.449 842.617C328.317 843.547 328.181 844.484 328.05 845.415C327.17 846.604 326.419 847.935 325.357 848.931C324.757 849.493 323.642 849.512 322.755 849.751C322.503 849.816 322.196 849.726 321.968 849.823C317.657 851.703 313.034 851.787 308.468 852.22C307.772 852.285 307.093 852.505 306.406 852.653C305.207 852.666 304.008 852.666 302.81 852.679C301.148 852.789 299.486 852.873 297.827 853.015C296.821 853.106 295.822 853.286 294.819 853.429C293.62 853.577 292.421 853.719 291.223 853.868C288.027 853.739 284.83 853.61 281.634 853.474C280.691 853.597 279.748 853.726 278.805 853.849C276.951 853.571 275.089 853.345 273.247 852.996C268.453 852.084 263.634 851.257 258.9 850.094C257.05 849.641 255.4 848.375 253.661 847.477C253.378 846.921 253.094 846.365 252.811 845.809C253.633 844.439 254.481 843.088 255.259 841.699C255.504 841.259 255.567 840.723 255.711 840.232C256.366 839.178 257.026 838.119 257.681 837.065C259.279 836.555 260.874 836.044 262.639 835.475C261.592 832.457 260.649 829.736 259.706 827.016L258.904 824.657L258.888 824.67C258.988 824.611 259.083 824.553 259.184 824.495C259.087 824.385 258.988 824.275 258.891 824.165C258.704 823.131 258.568 822.091 258.316 821.083C257.753 818.821 257.981 816.85 259.551 814.917C261.72 812.242 263.602 809.34 265.58 806.509C265.824 806.167 266.068 805.689 266.028 805.294C265.656 801.554 265.224 797.814 264.797 794.078C264.789 793.994 264.605 793.926 264.505 793.855C264.338 792.66 264.17 791.469 264.002 790.274C263.886 788.988 263.738 787.702 263.67 786.411C263.614 785.332 263.658 784.249 263.658 782.787C267.725 783.642 271.185 784.305 274.606 785.124C275.632 785.368 276.555 786.039 277.598 786.551C279.64 783.61 282.505 781.44 286.317 780.697C287.364 780.494 287.695 779.998 287.655 778.951C287.459 773.805 287.324 768.655 287.172 763.505C287.051 761.639 286.932 759.777 286.812 757.911C286.796 748.454 286.78 739 286.764 729.543C286.672 728.341 286.576 727.134 286.484 725.932C286.484 725.408 286.484 724.888 286.484 724.365L286.085 721.968L286.66 717.157C286.676 716.223 286.688 715.291 286.704 714.356C286.684 714.093 286.668 713.825 286.648 713.561C286.672 712.626 286.696 711.695 286.72 710.76C286.68 708.911 286.636 707.064 286.596 705.215C286.56 704 286.524 702.785 286.489 701.571C286.472 696.628 286.456 691.686 286.432 686.744C286.425 685.026 286.388 683.307 286.368 681.594C286.352 680.395 286.337 679.196 286.321 677.998C286.361 674.933 286.396 671.872 286.436 668.808C286.548 667.478 286.66 666.143 286.772 664.812C286.944 662.02 287.115 659.231 287.287 656.438C287.287 655.771 287.287 655.107 287.287 654.44C287.423 653.258 287.659 652.071 287.671 650.884C287.699 648.203 287.615 645.519 287.575 642.833V641.663C286.44 641.347 285.478 641.075 284.51 640.808C284.387 640.204 284.011 639.521 284.171 639.005C286.401 631.854 287.719 624.522 288.906 617.134C289.825 611.417 291.347 605.799 292.598 600.137C293.053 598.524 293.508 596.905 293.96 595.291C294.38 593.561 294.799 591.827 295.218 590.097C295.198 589.829 295.178 589.566 295.158 589.298C295.063 588.903 294.967 588.511 294.871 588.115C295.151 587.856 295.43 587.592 295.706 587.332C296.101 586.861 296.497 586.389 296.685 586.17C294.188 586.17 291.71 586.17 289.233 586.17C288.29 586.25 287.347 586.329 286.405 586.405C278.565 586.437 270.722 586.477 262.883 586.497C258.265 586.509 253.646 586.497 249.107 586.497C250.281 592.79 251.54 598.615 252.415 604.501C253.086 609.02 253.598 613.61 253.569 618.165C253.549 621.757 252.61 625.345 252.051 628.933C251.951 629.569 251.724 630.18 251.556 630.803C250.741 633.596 249.926 636.389 249.111 639.177C248.787 640.264 248.467 641.347 248.144 642.434C248.139 642.701 248.132 642.965 248.128 643.233C247.784 644.927 247.345 646.605 247.117 648.315C246.725 651.272 246.462 654.248 246.146 657.217C246.014 658.416 245.878 659.614 245.746 660.813L245.715 660.873ZM296.373 509.824C295.65 510.008 294.927 510.196 294.2 510.379C285.378 513.636 276.252 516.073 267.606 519.841C267.877 520.148 268.081 520.236 268.237 520.185C272.852 518.606 277.483 517.071 282.069 515.41C286.213 513.903 290.3 512.253 294.415 510.667C295.143 510.475 295.87 510.284 296.593 510.088C296.78 509.94 296.972 509.792 297.16 509.648C297.108 509.572 297.06 509.497 297.009 509.42L296.369 509.824H296.373ZM292.602 497.718C292.905 497.745 293.205 497.778 293.508 497.805C293.521 497.718 293.532 497.63 293.545 497.538C293.316 497.49 293.089 497.438 292.861 497.39C293.313 496.719 293.764 496.052 294.22 495.38C294.899 495.008 295.542 494.497 296.265 494.314C296.841 494.17 297.708 494.202 298.119 494.545C300.436 496.491 302.574 498.657 304.936 500.546C306.842 502.073 308.923 503.407 311.029 504.658C312.371 505.453 312.827 505.277 313.753 504.474C308.307 500.286 302.846 496.088 297.732 492.156C296.145 493.366 295.055 494.197 293.964 495.028C292.166 495.84 291.794 496.571 292.606 497.721L292.602 497.718ZM238.079 495.081C239.178 491.473 240.277 487.869 241.379 484.261C241.116 484.185 240.852 484.109 240.588 484.033C239.649 487.649 238.706 491.261 237.767 494.877C237.744 495.304 237.72 495.728 237.696 496.156C237.787 496.163 237.875 496.167 237.967 496.176C238.003 495.812 238.043 495.449 238.079 495.085V495.081ZM274.821 191.396C274.913 191.504 275.009 191.616 275.101 191.724C275.121 191.664 275.141 191.608 275.161 191.548C275.033 191.516 274.909 191.48 274.781 191.448C274.322 186.77 277.439 185.503 280.931 184.988C281.29 183.621 281.286 182.255 281.95 181.424C283.24 179.821 283.631 177.896 284.515 176.17C285.693 173.868 287.799 172.358 290.304 171.89C292.889 171.407 295.566 171.431 298.199 171.231C297.644 170.788 297.005 170.612 296.377 170.4C293.521 169.421 290.76 169.158 288.135 171.123C285.154 173.357 282.033 175.414 279.129 177.74C276.524 179.825 274.861 182.662 273.791 185.811C273.067 187.936 273.623 190.661 274.818 191.396H274.821ZM368.579 438.604C368.711 438.52 368.839 438.441 368.971 438.357C368.927 438.313 368.887 438.269 368.843 438.221L368.592 438.637C368.531 438.101 368.592 437.526 368.4 437.042C365.858 430.618 363.281 424.205 360.816 418.052C359.038 420.305 356.146 419.247 353.541 419.646C355.326 424.461 358.347 428.472 361.044 432.683C361.939 434.082 363.002 434.921 364.508 435.608C366.01 436.295 367.233 437.586 368.579 438.604ZM276.604 787.789C273.899 787.59 271.189 787.39 268.536 787.194C269.651 792.292 269.284 797.286 269.012 802.281C268.932 803.717 268.957 805.152 268.893 806.593C268.824 808.106 269.088 809.779 268.533 811.098C267.474 813.592 265.916 815.874 264.609 818.271C264.314 818.808 263.998 819.486 264.066 820.055C264.341 822.459 264.877 824.838 265.089 827.242C265.396 830.719 265.504 834.202 265.696 837.692C268.896 837.938 272.472 838.215 275.665 838.461C277.163 832.47 281.43 828.767 285.869 825.316C283.528 823.067 281.21 820.798 278.837 818.582C277.363 817.205 275.605 816.003 276.804 813.56C276.883 813.399 276.824 813.166 276.811 812.966C276.548 808.959 276.228 804.965 276.048 800.955C275.988 799.659 276.676 798.249 276.372 797.063C275.565 793.923 276.447 790.962 276.824 787.933C276.947 787.745 277.075 787.557 277.199 787.37C277.135 787.326 277.075 787.286 277.011 787.242C276.875 787.422 276.743 787.605 276.608 787.786L276.604 787.789ZM202.851 356.43C215.441 363.122 228.286 369.954 241.651 377.063C240.605 377.29 239.913 377.634 239.286 377.538C237.991 377.346 236.68 377.058 235.47 376.571C228.853 373.89 222.197 371.293 215.697 368.352C210.294 365.907 204.665 363.698 200.662 358.695C199.842 359.962 199.187 361.252 198.276 362.319C197.301 363.466 196.071 364.392 194.984 365.447C194.824 365.604 194.832 365.947 194.8 366.206C194.684 367.126 194.153 368.356 194.553 368.903C195.699 370.474 196.986 372.252 198.652 373.063C201.656 374.521 205.005 375.26 208.161 376.435C217.73 379.995 226.808 384.614 235.686 389.62C236.94 390.327 238.151 391.298 237.927 393.324C236.996 392.968 236.241 392.68 235.474 392.385C234.355 402.098 227.14 412.694 222.641 414.947C225.386 419.419 228.13 423.889 231.027 428.604C231.499 426.47 231.794 424.796 232.238 423.158C235.734 410.157 239.286 397.171 242.738 384.163C243.153 382.604 243.629 380.73 243.15 379.315C239.797 369.491 238.395 359.231 236.129 349.17C235.85 347.931 235.946 346.604 235.869 345.318C236.114 345.278 236.353 345.234 236.597 345.194C239.142 350.388 239.965 356.086 240.96 361.728C241.951 367.369 242.934 373.011 243.921 378.665C244.084 378.521 244.328 378.417 244.372 378.257C247.049 368.68 249.834 359.13 252.319 349.502C253.813 343.712 254.96 337.827 256.019 331.937C256.89 327.103 257.349 322.197 258.073 317.334C258.82 312.3 258.372 307.425 257.03 302.498C255.671 297.52 252.243 295.902 247.641 295.618C247.361 295.603 247.089 295.29 246.821 295.303C243.146 295.479 240.105 296.809 238.063 300.05C232.449 308.944 226.756 317.789 221.186 326.712C215.033 336.568 208.98 346.485 202.855 356.421L202.851 356.43ZM191.092 494.921C191.748 495.209 192.028 495.356 192.323 495.456C197.621 497.206 202.739 499.308 207.486 502.316C212.072 505.221 216.815 507.874 221.45 510.703C222.213 511.166 222.773 511.961 223.423 512.605C223.296 512.813 223.172 513.02 223.044 513.228C221.45 512.745 219.756 512.465 218.286 511.734C214.298 509.744 210.466 507.435 206.459 505.481C200.961 502.8 195.364 500.323 189.806 497.765C189.438 497.598 189.046 497.478 189.022 497.47C186.026 508.05 183.073 518.474 180.084 529.018C183.561 530.624 187.229 532.283 190.864 534.013C198.064 537.445 205.228 540.945 212.436 544.361C214.25 545.22 216.184 545.815 218.014 546.638C218.817 546.998 219.444 547.869 220.259 548.081C222.713 548.724 225.222 549.152 227.707 549.671C228.901 549.923 230.288 550.71 231.247 550.35C233.596 549.471 235.746 548.065 237.512 547.122C237.292 546.039 236.813 545.116 236.993 544.345C238.203 539.178 239.442 534.013 240.888 528.907C242.227 524.172 243.829 519.509 245.395 514.55C238.842 510.447 232.669 512.888 226.508 516.656C227.451 513.296 230.232 512.065 232.785 510.687C235.49 509.224 238.451 508.809 241.591 509.285C241 508.598 240.444 507.974 239.753 507.726C234.767 505.952 229.765 504.226 224.734 502.58C224.303 502.441 223.648 502.992 223.256 503.155C224.878 504.482 226.325 505.613 227.691 506.831C227.947 507.059 227.879 507.655 227.963 508.078C227.535 508.138 227.083 508.322 226.684 508.238C225.621 508.018 224.527 507.807 223.548 507.366C221.782 506.58 219.992 505.76 219.636 503.463C219.572 503.051 218.981 502.64 218.542 502.38C216.919 501.417 215.213 500.582 213.639 499.548C213.132 499.216 213.084 498.137 212.576 497.866C210.203 496.591 207.742 495.48 205.16 494.237C204.597 495.92 203.346 496.172 202.068 495.324C201.828 495.165 202.467 493.67 202.755 492.591C202.255 492.336 201.313 491.425 200.69 491.604C197.537 492.523 194.465 493.722 191.096 494.921H191.092ZM337.451 605.691C339.788 611.909 341.794 618.15 344.471 624.082C346.836 629.32 349.641 633.32 357.368 632.892C361.184 632.681 365 632.457 368.799 632.081C373.214 631.646 377.617 631.055 382.02 630.491C382.775 630.396 383.906 630.332 384.186 629.856C385.545 627.539 387.299 625.197 387.75 622.656C388.613 617.846 388.868 612.899 389.024 607.997C389.16 603.837 388.797 599.662 388.669 595.491C388.621 593.873 387.326 593.657 386.303 593.805C381.928 594.448 377.533 595.067 373.238 596.078C364.64 598.1 356.086 600.322 347.543 602.571C344.055 603.49 340.639 604.692 337.455 605.688L337.451 605.691ZM373.35 820.585C374.569 821.283 375.755 821.781 376.722 822.543C381.045 825.981 385.265 829.549 389.612 832.961C392.504 835.23 395.581 837.259 398.513 839.489C399.652 840.348 399.721 841.065 399.065 841.867C398.25 842.856 397.495 844.187 395.909 843.276C393.491 841.886 391.114 840.432 388.764 838.933C382.556 834.965 376.762 830.48 371.352 825.148C371.133 826.227 370.817 827.694 371.372 828.198C378.572 834.764 386.023 841.001 394.822 845.402C400.152 848.071 405.569 850.029 411.719 849.318C416.413 848.776 421.156 848.614 425.874 848.265C432.627 847.761 439.38 847.237 446.436 846.701C446.143 842.966 445.876 839.489 445.612 836.121C443.659 837.065 442.044 838.093 440.278 838.655C431.057 841.595 421.675 843.657 411.902 842.629C408.858 842.306 405.858 841.595 402.833 841.072C401.754 840.891 401.394 840.426 401.411 839.198C401.45 836.567 402.549 834.383 404.011 832.418C405.398 830.557 407.152 828.961 408.63 827.378C400.327 820.256 395.157 810.878 390.662 801.15C388.229 802.229 386.008 803.297 383.71 804.17C383.115 804.396 382.072 804.247 381.605 803.84C380.869 803.208 381.005 802.277 381.92 801.702C384.246 800.247 386.591 798.817 388.985 797.343C386.387 790.786 380.454 791.593 375.068 791.521C375.747 801.458 374.369 811.137 373.35 820.585ZM337.023 601.652C352.697 597.425 368.184 592.99 384.142 590.728C383.379 584.24 382.607 577.675 381.84 571.122C364.771 575.629 346.952 578.326 330.023 584.383C332.976 589.893 336.184 595.251 337.027 601.652H337.023ZM335.477 197.318C333.2 197.897 331.014 198.325 328.916 199.02C324.885 200.354 320.426 200.011 316.642 202.512C315.104 203.531 313.178 203.758 312.411 205.892C312.155 206.603 310.813 206.895 310.018 207.458C309.163 208.062 308.219 208.633 307.584 209.432C306.058 211.338 304.772 213.447 302.062 213.899C301.731 213.955 301.315 214.426 301.207 214.786C299.957 218.905 298.759 223.041 297.488 227.363C298.291 226.984 298.898 226.669 299.53 226.409C303.109 224.943 306.666 223.392 310.306 222.09C311.292 221.738 312.639 222.438 313.658 222.122C318.512 220.623 323.479 220.268 328.469 220.623C332.221 220.891 335.965 221.714 338.929 224.251C340.075 225.234 341.115 225.486 342.481 225.314C343.843 225.142 345.23 225.146 346.584 224.946C347.232 224.851 347.903 224.567 348.45 224.199C350.212 223.004 351.922 221.734 353.712 220.452C353.544 219.856 353.281 218.937 353.021 218.018C351.587 218.214 350.252 218.502 348.905 218.546C348.211 218.57 347.503 218.166 346.804 217.958C347.219 217.087 347.483 216.08 348.103 215.393C348.666 214.762 349.617 214.478 350.077 214.223C349.453 211.602 349.05 209.18 348.275 206.883C347.791 205.448 347.655 203.882 346.161 202.704C344.818 201.649 343.456 201.669 342.045 201.409C339.452 200.926 336.816 200.562 335.481 197.322L335.477 197.318ZM218.17 549.323C210.718 560.203 203.394 570.895 196.071 581.587C196.279 581.578 196.482 581.567 196.69 581.558C197.026 582.578 197.329 583.612 197.709 584.615C198.061 585.542 198.256 586.961 198.932 587.268C206.227 590.58 213.787 592.391 221.693 589.69C224.47 588.742 226.7 587.312 227.795 583.908C230.759 574.703 234.335 565.689 237.7 556.515C235.742 555.396 233.568 554.122 231.354 552.911C230.524 552.455 229.617 551.86 228.734 551.84C225.006 551.748 221.382 551.357 218.17 549.323ZM255.679 294.523C256.178 295.219 256.566 295.726 256.914 296.258C260.854 302.279 262 308.927 261.233 315.971C260.618 321.629 260.074 327.303 259.195 332.924C257.477 343.94 254.369 354.628 251.308 365.335C248.236 376.087 245.651 386.979 242.818 397.799C239.921 408.866 236.98 419.922 234.076 430.989C233.936 431.517 233.728 432.228 233.956 432.612C234.887 434.157 235.973 435.612 237.256 437.462C237.256 436.663 237.192 436.327 237.264 436.023C239.913 425.012 242.614 414.016 245.227 402.997C247.113 395.046 248.835 387.055 250.725 379.104C253.106 369.075 255.691 359.094 257.996 349.05C260.686 337.343 263.882 325.736 265.304 313.758C265.856 309.119 265.812 304.585 264.321 300.149C262.595 295.011 261.712 294.448 256.259 294.496C256.127 294.496 255.995 294.512 255.671 294.532L255.679 294.523ZM321.161 840.115C316.091 840.452 310.949 840.794 305.802 841.117C299.945 841.486 294.087 841.841 288.226 842.203C283.304 842.507 278.645 840.018 273.607 840.994C271.333 841.434 268.904 841.072 266.399 841.072C266.171 842.81 265.904 844.84 265.64 846.85C283.927 849.861 302.067 850.197 320.042 847.632C320.438 844.963 320.778 842.649 321.153 840.115H321.161ZM363.941 713.749C364.484 715.335 365.047 716.846 365.519 718.38C368.632 728.5 371.788 738.609 374.8 748.761C378.041 759.673 381.101 770.641 384.35 781.552C384.849 783.231 384.845 785.356 386.547 786.019C388.269 784.709 389.8 783.542 391.186 782.484C383.375 759.565 375.743 736.483 369.343 712.918C367.808 713.154 365.882 713.446 363.941 713.745V713.749ZM405.55 839.172C408.355 839.418 411.032 839.786 413.716 839.844C421.044 839.999 428.26 838.913 435.408 837.42C437.206 837.046 438.948 836.251 440.618 835.443C442.344 834.609 442.668 833.407 441.793 832.141C441.141 831.203 440.378 830.305 439.882 829.284C438.963 827.397 437.522 826.188 435.6 825.51C430.905 823.855 426.278 824.521 421.767 826.175C415.043 828.638 409.333 832.477 405.55 839.172ZM320.802 838.642C320.354 837.782 319.903 836.529 319.127 835.527C317.553 833.491 316.155 830.984 314.049 829.743C309.059 826.828 303.321 826.492 297.704 827.158C290.296 828.03 285.138 832.767 280.063 838.642H320.798H320.802ZM288.118 824.146C293.988 821.464 300.293 822.026 306.546 822.983C304.2 821.025 301.383 819.415 299.641 817.024C297.328 813.857 295.063 813.198 291.623 814.82C289.138 815.99 286.509 815.893 284.231 814.116C283.616 813.638 283.288 812.778 282.833 812.1C283.54 811.634 284.199 810.904 284.966 810.749C288.57 810.044 292.206 809.502 295.85 808.901C295.438 807.692 295.019 806.477 294.611 805.288C293.68 805.456 292.801 805.663 291.91 805.766C289.037 806.102 286.165 806.419 283.288 806.684C282.897 806.723 282.477 806.425 282.065 806.283C282.245 805.844 282.309 805.146 282.625 805.004C283.924 804.415 285.262 803.795 286.648 803.556C289.069 803.14 291.539 803 294.084 802.736C293.716 801.246 293.409 800.007 293.085 798.681C288.962 799.168 284.946 799.644 281.002 800.107C280.667 803.801 280.303 807.408 280.039 811.027C279.975 811.893 279.972 812.998 280.435 813.618C281.969 815.667 283.823 817.47 285.37 819.512C286.425 820.895 287.172 822.518 288.122 824.146H288.118ZM372.455 710.497C370.945 702.802 371.54 695.262 371.668 687.547C366.902 689.277 362.287 688.334 357.896 686.216C357.12 687.827 357.464 689.708 358.611 689.397C360.549 688.869 361.755 689.848 363.034 690.511C364.652 691.355 366.966 691.782 367.029 694.898C365.235 694.655 363.601 694.431 362.438 694.275C361.851 697.839 361.336 701.407 360.633 704.935C360.432 705.946 359.829 706.861 358.307 706.562C357.316 706.366 356.214 706.753 355.143 706.881C356.089 710.669 357.684 711.695 361.236 711.248C363.517 710.96 365.835 710.96 368.136 710.813C369.634 710.716 371.129 710.597 372.459 710.497H372.455ZM396.46 805.029C399.956 804.086 403.26 803.224 406.537 802.265C406.924 802.149 407.436 801.474 407.416 801.082C407.12 795.293 405.454 794.422 400.223 797.586C399.373 793.103 403.879 793.607 405.554 791.481C404.443 789.304 403.368 787.03 402.109 784.857C401.826 784.365 400.835 783.878 400.311 783.998C398.054 784.517 395.836 785.224 393.627 785.939C392.244 786.387 391.677 787.546 391.929 788.868C392.285 790.762 392.984 792.588 393.352 794.482C393.611 795.816 394.726 797.363 392.792 798.346C394.075 800.683 395.281 802.884 396.46 805.029ZM217.347 497.454C218.693 498.045 220.439 498.809 222.585 499.748C223.004 497.398 223.16 495.253 223.791 493.251C225.521 487.761 227.399 482.311 229.325 476.885C230.284 474.184 231.479 471.568 232.546 468.97C230.316 467.716 228.294 466.573 226.228 465.41C226.017 465.862 225.797 466.202 225.693 466.573C224.606 470.361 223.608 474.177 222.445 477.936C221.642 480.525 220.407 482.99 219.744 485.607C218.797 489.339 218.198 493.159 217.35 497.446L217.347 497.454ZM414.184 812.927C410.612 814.122 406.856 815.383 402.861 816.714C404.602 819.28 406.281 821.677 407.875 824.133C408.45 825.019 408.83 826.027 409.146 826.667C414.016 824.734 419.206 822.666 424.009 820.753C420.904 818.284 417.54 815.609 414.18 812.927H414.184ZM284.319 277.563L284.794 277.831C287.999 273.08 291.207 268.325 294.511 263.427C292.43 263.834 290.652 264.178 288.578 264.582C289.929 261.973 291.107 259.687 292.505 256.982C290.068 258.321 288.067 259.399 286.093 260.518C285.733 260.722 285.334 261.054 285.19 261.417C284.355 263.582 283.591 265.776 282.732 268.161C284.355 268.009 285.769 267.878 287.384 267.726C286.313 271.162 285.318 274.358 284.319 277.555V277.563ZM251.165 421.644C250.589 421.173 249.849 420.681 249.25 420.054C247.736 418.467 248.048 414.952 249.435 413.98C251.061 412.846 252.423 411.327 253.845 409.921C254.033 409.734 254.041 409.142 253.893 408.866C252.866 406.944 251.78 405.055 250.613 402.977C248.1 412.25 245.662 421.264 243.19 430.394C245.858 427.465 248.511 424.549 251.165 421.64V421.644ZM368.004 449.66C367.824 451.242 367.64 452.853 367.429 454.746C368.488 454.87 369.59 455.365 370.225 455.014C373.094 453.428 375.831 451.602 378.776 449.764C377.082 447.658 375.336 445.485 373.606 443.335C370.781 443.987 369.758 446.44 368.42 448.457C370.509 449.228 372.535 449.979 374.561 450.727C374.509 450.878 374.461 451.026 374.409 451.178C372.275 450.671 370.137 450.168 368.008 449.66H368.004ZM330.203 433.61C329.855 433.698 329.508 433.79 329.16 433.878C331.346 448.997 333.531 464.12 335.716 479.239C335.917 479.215 336.116 479.19 336.312 479.166C336.312 478.24 336.4 477.304 336.296 476.39C335.948 473.337 335.513 470.292 335.145 467.24C334.582 462.557 334.107 457.863 333.491 453.188C332.76 447.614 331.953 442.048 331.114 436.487C330.966 435.504 330.511 434.569 330.195 433.61H330.203ZM398.29 808.306C399.037 809.695 399.716 810.949 400.387 812.203C400.851 813.076 401.318 813.276 402.401 812.875C405.41 811.751 408.518 810.885 411.726 809.876C410.488 808.332 409.177 806.69 407.903 805.1C404.683 806.173 401.562 807.214 398.294 808.306H398.29ZM178.047 508.457C178.954 509.228 179.769 509.924 181.016 510.987H177.108C176.788 512.058 176.477 513.096 176.161 514.151C177.508 514.934 178.734 515.645 179.925 516.337C180.904 512.877 181.871 509.46 182.838 506.044C180.265 504.977 179.849 505.177 178.047 508.457ZM370.43 557.003C370.43 556.887 370.425 556.775 370.421 556.659C370.225 556.635 370.018 556.559 369.838 556.599C362.219 558.321 354.595 560.027 346.996 561.833C346.485 561.953 346.149 562.828 345.734 563.355C345.897 563.543 346.061 563.731 346.225 563.919C354.295 561.613 362.363 559.308 370.433 557.003H370.43ZM410.636 793.918C411.127 795.377 411.551 796.631 411.931 797.754C415.354 797.802 418.659 797.794 421.404 794.906C417.812 793.235 414.26 794.082 410.636 793.918ZM364.48 512.417C364.504 512.221 364.524 512.021 364.548 511.826C361.424 511.41 358.307 510.899 355.17 510.595C350.404 510.136 345.63 509.796 340.851 509.473C340.388 509.44 339.892 509.896 339.412 510.123C339.469 510.264 339.52 510.407 339.577 510.547C347.879 511.17 356.177 511.798 364.48 512.421V512.417ZM348.65 488.46C348.482 488.285 348.314 488.109 348.142 487.933C345.182 490.726 342.189 493.486 339.269 496.315C336.703 498.801 334.198 501.342 331.717 503.911C331.306 504.334 331.178 505.03 330.918 505.601C331.13 505.716 331.338 505.832 331.549 505.948C337.251 500.119 342.948 494.29 348.65 488.46ZM248.575 573.256C248.611 573.528 248.643 573.804 248.679 574.075C259.131 573.004 269.583 571.933 280.036 570.863C280.019 570.687 280.004 570.511 279.988 570.335C269.516 571.31 259.047 572.285 248.575 573.256ZM363.461 653.465C362.231 653.765 361.475 653.785 360.904 654.124C359.318 655.067 358.563 659.187 359.542 661.097C359.566 661.141 359.65 661.156 359.89 661.28C362.31 659.479 362.031 656.454 363.461 653.465ZM283.728 428.496C283.739 428.324 283.752 428.152 283.767 427.98C275.589 427.737 267.434 426.706 259.247 426.73L259.219 427.593L283.732 428.496H283.728ZM355.79 646.138C355.71 646.385 355.63 646.637 355.55 646.885C356.613 649.594 359.374 648.719 361.388 649.214C363.565 649.75 365.875 649.757 368.128 649.997C368.164 649.818 368.2 649.638 368.236 649.458C364.088 648.351 359.937 647.244 355.79 646.138ZM314.872 426.059C311.28 425.599 307.657 425.14 303.813 424.648C305.115 427.237 313.142 427.973 314.872 426.059ZM363.805 635.206C362.458 637.272 362.478 639.026 363.901 640.616C364.232 640.988 364.952 641.311 365.383 641.203C365.771 641.107 366.258 640.4 366.266 639.953C366.294 637.971 365.319 636.469 363.809 635.202L363.805 635.206ZM337.375 427.525C337.375 427.449 337.375 427.37 337.375 427.293L318.18 426.29C318.456 426.998 318.884 427.489 319.315 427.493C325.337 427.545 331.357 427.529 337.379 427.529L337.375 427.525ZM285.422 233.437C285.442 233.613 285.466 233.793 285.486 233.968C286.284 233.736 287.176 233.661 287.867 233.249C289.697 232.162 291.339 230.716 293.245 229.813C295.143 228.914 295.602 227.747 295.151 226.313C293.673 227.511 292.178 228.822 290.584 229.989C288.913 231.207 287.148 232.294 285.422 233.437ZM365.371 227.707C366.122 226.001 365.607 224.367 364.2 223.923C363.809 223.8 362.902 224.128 362.814 224.423C362.162 226.576 363.933 226.964 365.375 227.711L365.371 227.707ZM335.461 227.184C334.61 225.45 332.512 224.439 330.379 224.734C330.407 226.748 331.689 227.004 335.461 227.184ZM375.752 642.577C375.639 642.374 375.527 642.166 375.412 641.962C374.676 642.33 373.945 642.701 373.21 643.069C373.262 643.197 373.314 643.329 373.362 643.457C374.157 643.165 374.952 642.873 375.747 642.582L375.752 642.577ZM336.664 480.034C336.547 480.041 336.436 480.05 336.32 480.058C336.372 480.35 336.424 480.641 336.476 480.933C336.54 480.925 336.6 480.916 336.664 480.913V480.034Z" fill="#190D26"/>
<path d="M203.578 557.822C199.047 564.442 194.533 571.075 189.958 577.659C189.358 578.522 188.703 579.134 187.184 578.754C180.404 577.06 174.855 573.372 169.736 568.817C168.39 567.618 166.804 566.688 165.366 565.585C164.478 564.901 164.283 564.262 165.054 563.12C168.103 558.625 170.863 553.934 173.956 549.471C176.205 546.223 178.858 543.258 181.232 540.09C182.478 538.428 183.976 538.384 185.71 538.939L189.306 539.758C192.614 541.121 196.055 542.239 199.195 543.918C202.46 545.659 205.436 547.941 208.48 549.943C207.354 551.833 206.299 553.607 205.244 555.377C204.689 556.192 204.13 557.007 203.575 557.822H203.578ZM199.363 557.514C201.316 554.637 203.271 551.761 205.3 548.776C203.962 548.045 202.244 547.002 200.426 546.175C199.966 545.967 198.927 546.235 198.612 546.642C197.054 548.652 195.651 550.782 194.313 552.695C195.663 553.942 196.906 555.089 198.148 556.236C196.574 555.52 195 554.805 193.262 554.018C191.7 556.027 190.066 558.125 188.375 560.295C190.485 561.589 192.451 562.8 194.724 564.191C196.338 561.865 197.852 559.687 199.363 557.51V557.514ZM167.179 564.426C173.444 568.31 178.295 574.119 185.271 576.872C185.914 575.67 186.514 574.546 186.985 573.664C180.84 569.968 174.663 566.248 168.438 562.504C168.138 562.96 167.719 563.599 167.175 564.426H167.179ZM187.165 561.765C185.391 563.955 183.717 566.02 182.171 567.926C183.989 569.345 185.646 570.675 187.365 571.93C187.596 572.098 188.295 572.03 188.467 571.818C190.309 569.536 192.087 567.207 193.869 564.906C191.548 563.819 189.39 562.808 187.165 561.769V561.765ZM191.56 542.12C190.058 544.305 188.695 546.287 187.297 548.325C189.019 549.351 190.681 550.346 192.387 551.369C194.169 549.207 195.963 547.03 197.808 544.784C195.639 543.861 193.634 543.006 191.56 542.124V542.12ZM181.208 556.307C183.073 557.286 184.736 558.158 186.477 559.072C188.167 556.903 189.754 554.865 191.38 552.779C189.522 551.705 187.848 550.742 186.086 549.723C184.472 551.9 182.918 553.998 181.208 556.303V556.307ZM180.436 567.443C182.05 565.093 183.585 562.86 185.163 560.562C183.405 559.619 181.827 558.773 180.201 557.902C178.594 560.011 176.944 562.181 175.267 564.386C177.024 565.425 178.654 566.392 180.436 567.443ZM179.166 555.341C180.828 553.051 182.466 550.789 184.116 548.512C182.79 547.605 181.527 546.746 180.157 545.811C178.239 548.389 176.333 550.95 174.427 553.506C176.117 554.158 177.62 554.741 179.166 555.337V555.341ZM173.944 563.479C175.37 561.254 176.785 559.048 178.171 556.879C176.629 555.976 175.258 555.177 173.88 554.37C172.325 556.695 170.815 558.953 169.337 561.166C170.947 561.973 172.385 562.696 173.944 563.475V563.479ZM189.786 541.38C187.796 540.705 186.014 540.101 184.276 539.515C183.249 541.196 182.282 542.787 181.267 544.445C182.094 544.956 182.993 545.312 183.617 545.935C184.923 547.25 185.774 546.558 186.625 545.467C187.628 544.181 188.619 542.887 189.786 541.377V541.38Z" fill="#190D26"/>
<path d="M355.922 392.405C353.737 389.656 354.619 386.591 355.386 383.755C356.162 380.882 357.301 378.029 358.743 375.424C361.664 370.154 361.827 364.768 359.941 359.266C358.255 354.344 356.134 349.566 354.476 344.631C353.592 342.01 353.217 339.205 352.774 336.456C352.654 335.701 352.894 334.678 353.361 334.087C354.02 333.256 354.963 332.329 355.93 332.125C357.664 331.758 357.097 333.579 357.376 334.378C359.562 340.619 361.759 346.864 363.637 353.202C364.772 357.037 365.751 361.008 366.058 364.976C366.334 368.528 365.867 372.212 364.173 375.544C361.827 381.046 359.478 386.552 357.021 392.317C356.941 392.325 356.433 392.365 355.922 392.405Z" fill="#190D26"/>
<path d="M326.339 292.534C327.506 293.213 328.629 293.988 329.851 294.528C330.579 294.852 331.493 294.987 332.284 294.896C336.308 294.42 339.105 296.641 341.89 298.939L341.742 299.562C341.002 299.398 340.235 299.31 339.524 299.063C337.41 298.327 335.493 297.109 333.051 297.353C330.323 297.624 328.125 296.114 325.923 294.708C324.957 294.088 323.794 293.789 322.739 293.297C320.953 292.466 319.183 291.595 317.273 290.68C317.038 291.943 316.762 293.393 316.49 294.843C316.258 294.835 316.026 294.828 315.799 294.815C315.759 291.687 315.511 288.547 315.739 285.438C315.975 282.194 316.738 278.985 317.09 275.745C317.154 275.154 316.47 274.314 315.915 273.847C311.839 270.443 307.708 267.103 303.297 263.503C305.651 263.104 307.416 263.455 309.223 264.322C314.373 266.795 319.459 269.376 325.096 270.755C331.333 272.281 337.383 272.013 343.132 269.36C345.022 268.489 346.876 266.564 347.755 264.662C349.605 260.65 350.795 256.331 352.254 252.14C352.402 251.209 352.545 250.274 352.693 249.343C352.849 248.84 353.005 248.336 353.161 247.837C353.94 247.629 353.404 245.367 355.099 246.602L354.379 256.539C354.08 257.465 353.78 258.393 353.477 259.32C351.311 264.09 348.47 268.441 343.695 270.83C338.146 273.607 332.177 274.563 325.956 273.36C324.265 273.032 322.52 272.988 320.698 272.8C320.462 274.343 320.242 275.989 319.951 277.623C319.495 280.172 319.027 282.721 318.492 285.254C318.276 286.277 318.256 287.024 319.291 287.708C321.025 288.854 322.631 290.2 324.29 291.463C324.969 291.823 325.652 292.183 326.331 292.542L326.339 292.534Z" fill="#190D26"/>
<path d="M286.041 243.729C284.946 243.186 283.852 242.643 282.812 242.127C283.408 241.376 286.013 240.821 287.523 241.544C289.249 242.371 290.68 243.522 291.235 245.532C291.703 247.229 291.323 248.036 289.573 248.117C288.179 248.176 287.228 248.296 287.639 250.118C287.851 251.053 287.296 251.169 285.326 250.581C284.862 249.77 284.395 248.955 283.931 248.144C284.491 247.361 285.054 246.574 285.613 245.791C286.289 245.575 286.968 245.36 288.087 245.004C287.144 244.421 286.589 244.077 286.037 243.737L286.041 243.729Z" fill="#190D26"/>
<path d="M339.42 254.07H348.106C347.391 256.587 345.322 256.147 343.963 256.455C341.426 257.026 340.471 256.391 339.424 254.07H339.42Z" fill="#190D26"/>
<path d="M310.989 413.242C302.614 411.483 294.236 409.738 285.869 407.951C284.411 407.64 282.96 407.232 281.562 406.709C280.891 406.457 280.356 405.842 279.756 405.39L280.135 404.543C282.565 405.059 285.026 405.47 287.423 406.109C295.678 408.303 303.913 410.564 312.139 412.854C312.65 412.997 313.038 413.593 313.482 413.98C313.126 413.976 312.771 413.973 312.415 413.969C311.996 413.764 311.58 413.557 311.16 413.353C311.028 413.293 310.969 413.257 310.989 413.246V413.242Z" fill="#190D26"/>
<path d="M370.433 557.006C362.363 559.312 354.296 561.617 346.225 563.923C346.061 563.735 345.897 563.547 345.733 563.359C346.149 562.836 346.484 561.961 346.996 561.837C354.595 560.031 362.218 558.321 369.838 556.603C370.018 556.563 370.226 556.643 370.422 556.663C370.422 556.779 370.426 556.891 370.429 557.006H370.433Z" fill="#FFFCF9"/>
<path d="M348.655 488.464C342.953 494.294 337.256 500.123 331.554 505.953C331.342 505.837 331.134 505.72 330.923 505.605C331.182 505.033 331.314 504.338 331.722 503.915C334.199 501.346 336.708 498.805 339.273 496.319C342.194 493.487 345.187 490.726 348.147 487.937C348.315 488.113 348.483 488.289 348.655 488.464Z" fill="#FFFCF9"/>
<path d="M294.411 510.667C290.299 512.253 286.208 513.904 282.065 515.41C277.482 517.076 272.847 518.606 268.232 520.184C268.077 520.236 267.873 520.148 267.602 519.841C276.247 516.073 285.373 513.635 294.195 510.379C294.259 510.479 294.331 510.575 294.411 510.667Z" fill="#FFFCF9"/>
<path d="M248.584 573.264C259.056 572.289 269.524 571.314 279.996 570.344C280.012 570.52 280.028 570.695 280.044 570.871C269.592 571.942 259.14 573.013 248.688 574.083C248.652 573.812 248.62 573.536 248.584 573.264Z" fill="#FFFCF9"/>
<path d="M335.469 227.188C331.697 227.012 330.415 226.756 330.387 224.738C332.521 224.443 334.619 225.454 335.469 227.188Z" fill="#FFFCF9"/>
<path d="M237.764 494.877L240.585 484.033C240.848 484.109 241.112 484.185 241.376 484.261C240.277 487.868 239.178 491.473 238.076 495.081C237.979 495.001 237.876 494.933 237.76 494.877H237.764Z" fill="#FFFCF9"/>
<path d="M296.593 510.087C295.866 510.279 295.139 510.471 294.416 510.667C294.336 510.579 294.264 510.483 294.2 510.379C294.923 510.195 295.647 510.008 296.374 509.824C296.445 509.912 296.522 509.999 296.597 510.087H296.593Z" fill="#FFFCF9"/>
<path d="M238.075 495.081C238.039 495.444 237.999 495.808 237.963 496.171C237.871 496.164 237.783 496.16 237.691 496.152C237.715 495.724 237.739 495.301 237.764 494.873C237.876 494.929 237.979 494.997 238.079 495.077L238.075 495.081Z" fill="#FFFCF9"/>
<path d="M296.369 509.824L297.008 509.42C297.061 509.497 297.108 509.572 297.16 509.648C296.973 509.796 296.781 509.944 296.593 510.088C296.517 510 296.445 509.912 296.369 509.824Z" fill="#FFFCF9"/>
<path d="M316.918 372.38C319.235 372.915 318.92 374.369 319.299 375.764C320.03 378.464 321.369 381.01 322.564 383.57C326.104 391.158 329.7 398.722 333.263 406.297C333.399 406.589 333.547 406.912 333.543 407.22C333.543 407.835 333.439 408.454 333.38 409.07C332.692 408.822 331.613 408.774 331.377 408.303C327.154 399.908 322.931 391.514 318.952 383.003C317.789 380.514 317.302 377.693 316.654 374.989C316.471 374.217 316.81 373.323 316.918 372.38Z" fill="#190D26"/>
<path d="M313.829 397.543L327.534 410.137C322.132 406.904 316.965 403.401 313.346 398.146C313.506 397.947 313.666 397.742 313.829 397.543Z" fill="#190D26"/>
<path d="M345.306 333.639C344.103 337.415 342.337 340.907 340.044 344.127C339.844 344.028 339.645 343.924 339.44 343.823C341.167 340.315 342.889 336.804 344.615 333.296C344.847 333.411 345.074 333.528 345.306 333.639Z" fill="#190D26"/>
<path d="M205.919 374.241C202.028 372.168 198.544 370.314 194.828 368.332C196.894 367.952 204.277 371.857 205.919 374.241Z" fill="#190D26"/>
<path d="M210.55 541.807C212.388 532.878 213.495 524.531 217.674 516.58C213.831 514.702 209.663 512.641 205.468 510.627C203.015 509.449 200.406 508.549 198.088 507.147C196.043 505.908 194.249 506.448 192.351 507.107C190.357 507.802 190.097 509.668 189.73 511.366C188.894 515.238 188.004 519.105 187.42 523.017C187.153 524.799 187.5 526.693 187.712 528.519C187.752 528.874 188.423 529.242 188.874 529.454C194.245 531.991 199.63 534.496 205.009 537.013C206.77 537.836 208.52 538.68 210.111 539.966C209.116 539.65 208.089 539.414 207.134 539.003C201.225 536.462 195.335 533.869 189.426 531.324C188.211 530.8 187.316 529.138 185.611 530.389C183.501 526.09 184.656 521.898 185.474 517.795C186.27 513.795 187.497 509.88 188.479 505.916C189.103 503.403 190.948 502.173 193.218 503.211C201.005 506.78 208.756 510.431 216.464 514.167C219.069 515.43 220.275 516.732 219.292 520.764C218.078 525.73 216.995 530.728 215.613 535.647C215.081 537.545 213.987 539.319 212.927 541.013C212.624 541.496 211.549 541.496 210.546 541.804L210.55 541.807Z" fill="#190D26"/>
<path d="M226.432 542.371C227.271 539.391 227.994 536.573 228.865 533.801C230.272 529.318 231.762 524.863 233.24 520.404C234.143 517.683 234.371 517.571 237 518.234C239.058 518.754 239.82 519.761 239.225 521.91C237.575 527.856 235.901 533.801 233.959 539.658C232.896 542.862 231.67 543.162 226.432 542.371ZM233.644 525.011C232.154 529.31 230.595 533.585 229.197 537.916C228.458 540.213 229.009 540.697 231.722 540.394C231.722 539.091 231.542 537.741 231.758 536.458C232.385 532.698 233.172 528.966 233.895 525.222C233.939 524.931 233.983 524.639 234.027 524.347C233.943 524.336 233.864 524.319 233.78 524.308C233.736 524.543 233.688 524.775 233.644 525.011Z" fill="#190D26"/>
<path d="M217.686 541.304C217.55 532.223 220.759 524.156 224.646 516.297C224.91 516.284 225.17 516.273 225.433 516.26C225.565 517.088 226.017 518.023 225.773 518.721C224.13 523.492 222.329 528.211 220.607 532.954C219.604 535.727 218.653 538.519 217.682 541.304H217.686Z" fill="#190D26"/>
<path d="M229.093 547.825C227.323 547.441 226.44 546.958 226.437 545.376C226.437 543.873 227.387 543.478 228.586 543.422C229.8 543.366 231.155 544.848 230.8 546.047C230.591 546.75 229.685 547.241 229.093 547.829V547.825Z" fill="#190D26"/>
<path d="M196.387 520.967C197.721 522.661 199.515 523.521 201.377 524.279C201.425 524.299 201.289 525.306 201.041 525.414C200.502 525.654 199.691 525.881 199.256 525.634C197.569 524.687 196.315 523.34 196.387 520.967Z" fill="#190D26"/>
<path d="M192.383 514.243C194.952 514.934 195.56 515.945 193.95 517.639C193.198 516.608 192.491 515.637 191.788 514.67C191.988 514.526 192.184 514.387 192.383 514.243Z" fill="#190D26"/>
<path d="M208.588 523.009C207.646 522.666 206.703 522.326 205.76 521.983C206.04 521.547 206.227 520.859 206.611 520.728C208.013 520.244 208.625 521.108 208.588 523.013V523.009Z" fill="#190D26"/>
<path d="M328.577 215.009C324.421 214.186 321.505 216.148 318.516 217.822C318.112 218.046 317.773 218.402 317.353 218.573C316.503 218.925 315.619 219.193 314.744 219.492C314.848 218.609 314.776 217.658 315.084 216.855C316.622 212.82 323.962 209.791 327.258 213.227C327.766 213.755 328.141 214.414 328.577 215.009Z" fill="#190D26"/>
<path d="M224.443 557.786C226.644 557.638 228.802 558.197 230.412 560.115C232.857 563.024 232.23 566.192 230.328 569.132C228.578 571.838 225.354 572.905 221.974 571.977C219.604 571.327 216.911 570.939 216.108 568.118C214.578 562.736 216.42 557.77 224.439 557.781L224.443 557.786ZM229.237 563.571C228.786 563.403 228.434 563.251 228.075 563.147C225.433 562.38 222.357 563.515 221.07 565.792C220.275 567.195 219.964 568.613 221.402 569.868C222.924 571.194 225.286 571.386 226.592 570.216C228.578 568.438 229.341 566.172 229.237 563.571ZM226.92 560.207C225.453 558.757 221.53 559.128 219.82 561.565C222.473 561.058 224.786 560.615 226.92 560.207ZM227.867 560.938C227.915 560.894 227.963 560.85 228.015 560.806C227.971 560.758 227.927 560.71 227.883 560.659L227.731 560.862C227.775 560.886 227.823 560.914 227.867 560.938Z" fill="#190D26"/>
<path d="M221.838 579.113C219.589 578.954 217.223 578.742 214.85 578.622C212.066 578.482 212.066 578.518 210.14 581.087C213.827 581.618 217.519 582.146 221.207 582.677C221.207 582.969 221.199 583.264 221.195 583.557C219.205 583.756 217.22 584.096 215.23 584.12C212.936 584.148 210.631 583.736 208.342 583.8C205.677 583.876 204.334 582.17 206.012 580.02C206.284 579.673 206.36 579.181 206.552 578.77C208.346 574.954 210.727 573.839 214.966 574.842C217.923 575.542 220.891 576.201 223.812 577.016C224.268 577.144 224.922 578.138 224.799 578.494C224.299 579.941 223.545 581.299 222.817 582.653C222.797 582.693 221.738 582.378 221.727 582.194C221.667 581.159 221.778 580.116 221.83 579.105L221.838 579.113ZM216.864 577.695C219.102 577.815 220.919 577.915 222.733 578.01C222.733 577.823 222.733 577.639 222.737 577.451C220.919 577.268 219.098 576.32 216.864 577.695Z" fill="#190D26"/>
<path d="M226.924 560.211C224.791 560.618 222.473 561.062 219.824 561.569C221.534 559.128 225.462 558.76 226.924 560.211Z" fill="#FFFCF9"/>
<path d="M227.872 560.943C227.827 560.919 227.779 560.891 227.735 560.867L227.888 560.662C227.932 560.71 227.976 560.758 228.021 560.81C227.972 560.855 227.924 560.899 227.872 560.943Z" fill="#FFFCF9"/>
<path d="M216.859 577.695C219.093 576.32 220.915 577.268 222.733 577.451C222.733 577.639 222.733 577.823 222.729 578.01C220.915 577.915 219.097 577.814 216.859 577.695Z" fill="#FFFCF9"/>
</g>
<defs>
<clipPath id="clip0_2113_938">
<rect width="313" height="697.973" fill="white" transform="translate(144 157)"/>
</clipPath>
</defs>
</svg>
