<svg width="120" height="120" viewBox="0 0 120 120" fill="none" xmlns="http://www.w3.org/2000/svg">
<g clip-path="url(#clip0_2765_4843)">
<path d="M58.0766 117.526C60.7286 119.057 63.996 119.057 66.648 117.526L110.038 92.4743C112.69 90.9432 114.324 88.1135 114.324 85.0512L114.324 34.9487C114.324 31.8864 112.69 29.0567 110.038 27.5256L66.648 2.47434C63.996 0.943206 60.7286 0.943207 58.0766 2.47434L14.6865 27.5256C12.0345 29.0568 10.4008 31.8864 10.4008 34.9487L10.4008 85.0513C10.4008 88.1135 12.0345 90.9432 14.6865 92.4743L58.0766 117.526Z" fill="#478F65"/>
<path d="M37.854 62.451L57.4603 82.0573L86.8698 37.9431" stroke="white" stroke-width="5" stroke-linecap="round" stroke-linejoin="round"/>
</g>
<defs>
<clipPath id="clip0_2765_4843">
<rect width="120" height="120" fill="white"/>
</clipPath>
</defs>
</svg>
