<svg width="120" height="120" viewBox="0 0 120 120" fill="none" xmlns="http://www.w3.org/2000/svg">
<g clip-path="url(#clip0_2765_4651)">
<path d="M58.0766 117.526C60.7286 119.057 63.996 119.057 66.648 117.526L110.038 92.4743C112.69 90.9432 114.324 88.1135 114.324 85.0512L114.324 34.9487C114.324 31.8864 112.69 29.0567 110.038 27.5256L66.648 2.47434C63.996 0.943206 60.7286 0.943207 58.0766 2.47434L14.6865 27.5256C12.0345 29.0568 10.4008 31.8864 10.4008 34.9487L10.4008 85.0513C10.4008 88.1135 12.0345 90.9432 14.6865 92.4743L58.0766 117.526Z" fill="#BF2A27"/>
<path fill-rule="evenodd" clip-rule="evenodd" d="M41.0225 38.6609C41.9796 37.7038 43.5314 37.7038 44.4884 38.6609L62.3618 56.5342L80.2351 38.6609C81.1922 37.7038 82.744 37.7038 83.701 38.6609C84.6581 39.618 84.6581 41.1697 83.701 42.1268L65.8277 60.0001L83.701 77.8735C84.6581 78.8306 84.6581 80.3823 83.701 81.3394C82.744 82.2965 81.1922 82.2965 80.2351 81.3394L62.3618 63.4661L44.4884 81.3394C43.5314 82.2965 41.9796 82.2965 41.0225 81.3394C40.0654 80.3823 40.0654 78.8306 41.0225 77.8735L58.8958 60.0001L41.0225 42.1268C40.0654 41.1697 40.0654 39.618 41.0225 38.6609Z" fill="white"/>
</g>
<defs>
<clipPath id="clip0_2765_4651">
<rect width="120" height="120" fill="white"/>
</clipPath>
</defs>
</svg>
